<svg width="92" height="130" viewBox="0 0 92 130" fill="none" xmlns="http://www.w3.org/2000/svg">
<path d="M48.9892 79.2717C47.4555 86.3369 39.7106 100.467 21 100.467C39.7106 100.467 47.4555 119.489 48.9892 129C50.0762 122.025 55.5653 108.076 68.8261 108.076C55.5653 108.076 50.0762 88.692 48.9892 79M76.8153 42.2029C77.6271 44.503 81.7267 49.1032 91.6305 49.1032C81.7267 49.1032 77.6271 69.2627 76.8153 79.3425C76.0035 71.4951 71.9039 55.8005 62.0001 55.8005C71.9039 55.8005 76.0035 46.6002 76.8153 42M29.1848 3.3587C27.75 16.0326 20.5043 41.3804 3 41.3804M29.1848 3C30.6196 11.1304 37.8652 27.3913 55.3696 27.3913C37.8652 27.3913 30.6196 55.1304 29.1848 69C27.75 59.9131 20.5043 41.7391 3 41.7391" stroke="#6FCF97" stroke-width="5" stroke-linecap="round"/>
</svg>
