<svg width="171" height="47" viewBox="0 0 171 47" fill="none" xmlns="http://www.w3.org/2000/svg">
<path d="M155.521 11.692C156.346 10.9224 157.125 10.0972 158.006 9.39251C158.682 8.85473 159.35 8.22424 160.296 7.89045C160.379 8.45604 160.008 8.65076 159.851 8.93819C159.628 9.33689 159.443 9.76339 159.248 10.1806C159.137 10.2919 159.035 10.4031 158.923 10.5144C158.831 10.5422 158.729 10.5701 158.636 10.5886C158.562 10.6628 158.488 10.7277 158.414 10.8019C158.33 10.8668 158.247 10.9317 158.172 10.9966C158.117 11.0893 158.061 11.182 157.996 11.284L157.941 11.3211L157.968 11.2562C158.024 11.1635 158.08 11.0707 158.135 10.978C158.219 10.9131 158.293 10.8482 158.376 10.7741C158.451 10.7092 158.525 10.635 158.599 10.5701C158.71 10.5515 158.821 10.533 158.923 10.5144C159.035 10.4031 159.137 10.3012 159.248 10.1899C159.749 9.64287 160.249 9.09582 160.787 8.51169C161.557 9.34617 160.741 9.71705 160.481 10.3661C160.861 10.1528 161.139 9.99519 161.594 9.74485C161.177 10.431 160.852 10.978 160.528 11.5251C159.702 12.3781 158.886 13.2497 158.423 14.3716L158.46 14.3437C158.367 14.4365 158.284 14.5199 158.191 14.6126L158.228 14.5755C156.884 16.0776 155.53 17.5797 154.204 19.091C153.583 19.8049 153.008 20.556 152.415 21.2885L152.452 21.2514L152.183 21.511L152.22 21.4647C151.617 22.1508 151.005 22.8276 150.403 23.5138L150.44 23.4674C150.356 23.5508 150.263 23.6435 150.18 23.727L150.217 23.6899C150.124 23.7734 150.041 23.8661 149.948 23.9495L149.985 23.9032C149.837 24.0052 149.67 24.0886 149.549 24.2092C147.287 26.4715 145.034 28.7431 142.772 31.0055C142.697 31.0797 142.66 31.191 142.605 31.2744L142.651 31.2373L142.392 31.5062L142.429 31.4691L142.169 31.738L142.215 31.7009C141.798 31.9513 141.381 32.2109 140.964 32.4612C140.964 32.6003 140.964 32.7301 140.964 32.8692L140.88 32.8507L140.936 32.8785C140.936 32.7301 140.945 32.5818 140.954 32.4334C141.149 32.489 141.344 32.5539 141.538 32.6096L141.52 32.591C141.39 32.7579 141.297 32.9619 141.14 33.0917C139.174 34.6401 137.042 35.8919 134.677 36.6985C132.257 37.533 129.819 37.6257 127.389 36.7449C126.87 36.5594 126.332 36.4111 125.813 36.2071C124.293 35.623 123.022 34.705 121.984 33.4533C119.731 30.7366 118.637 27.5378 118.219 24.1071C117.886 21.3905 117.784 18.6552 117.533 15.9293C117.366 14.0934 117.19 12.2483 116.912 10.4217C116.736 9.24417 116.124 8.88254 114.946 9.0958C113.982 9.27197 113.018 9.51305 112.063 9.74485C111.553 9.87466 111.061 10.0508 110.561 10.2084C110.468 10.2363 110.375 10.2641 110.292 10.3012C110.385 10.2734 110.477 10.2455 110.57 10.2177C110.144 10.4032 109.708 10.5886 109.281 10.7741L109.3 10.8019C109.253 10.6906 109.198 10.5886 109.151 10.4866C109.216 10.4959 109.272 10.5051 109.337 10.5144C109.281 10.5051 109.226 10.4866 109.17 10.4773C109.049 10.5886 108.938 10.6906 108.818 10.8019L108.855 10.7741C108.604 10.8204 108.345 10.8667 108.094 10.9224L108.141 10.9873L108.104 10.9038C108.354 10.9502 108.604 10.9966 108.855 11.0337L108.818 11.0059C107.853 11.5436 106.898 12.0907 105.925 12.6192C104.821 13.2126 103.709 13.7689 102.605 14.3437L102.624 14.3716C102.689 14.2139 102.754 14.0563 102.819 13.8987C103.245 13.9265 103.458 13.7689 103.338 13.3239C103.598 13.4815 103.764 13.4444 103.802 13.1199C104.052 13.1291 104.293 13.1384 104.543 13.1477C104.747 12.7953 105.378 12.8417 105.35 12.2761C105.498 12.2019 105.647 12.137 105.786 12.0628C105.934 11.9701 106.082 11.8867 106.231 11.794C106.323 11.794 106.416 11.8125 106.509 11.8125C106.416 11.8032 106.323 11.794 106.24 11.7847L105.795 12.0443C105.647 12.1092 105.508 12.1834 105.359 12.2483C105.183 12.3688 104.97 12.4615 104.831 12.6192C104.701 12.7583 104.655 12.9715 104.562 13.1384C104.311 13.1199 104.061 13.1106 103.811 13.1013C103.653 13.1662 103.505 13.2404 103.347 13.3053C103.18 13.5093 103.013 13.704 102.846 13.908C102.244 14.2788 101.641 14.659 101.038 15.0299L101.085 14.9928C100.844 15.1504 100.612 15.308 100.371 15.4749L100.417 15.4379C99.2582 15.8551 98.3125 16.5783 97.478 17.4684L97.5151 17.4313C96.6157 18.0618 95.6978 18.6552 94.8355 19.3228C94.2699 19.7586 93.7785 20.3057 93.25 20.7971L93.2871 20.76C92.8235 21.0938 92.3135 21.3905 91.8963 21.7799C91.0618 22.5402 90.2737 23.3468 89.467 24.135L89.5041 24.0979C89.1796 24.3297 88.8272 24.5151 88.5398 24.784C85.3781 27.8345 82.2256 30.9035 79.0731 33.9726C78.6559 34.3805 78.285 34.8256 77.8863 35.2613L77.9327 35.2243C77.8492 35.317 77.7565 35.4004 77.673 35.4931L77.7101 35.4561C77.6267 35.5488 77.534 35.6322 77.4505 35.7249L77.4969 35.6879C76.9684 36.1329 76.4399 36.578 75.9114 37.023C75.8465 37.0972 75.7723 37.1714 75.7074 37.2456C75.6518 37.3383 75.5961 37.431 75.5405 37.5145C75.4756 37.6165 75.4107 37.7277 75.3458 37.8297C75.0583 37.8853 74.7709 37.941 74.4928 37.9873C74.4742 38.1171 74.4557 38.2562 74.4371 38.386C74.3259 38.4231 74.2146 38.4695 74.1126 38.5158C74.0755 38.6271 74.0384 38.7291 74.0013 38.8311H73.9272L73.9828 38.8496C74.0199 38.7198 74.057 38.5993 74.1033 38.4695C74.2146 38.4324 74.3166 38.3953 74.4279 38.3582C74.4557 38.2284 74.4835 38.0986 74.5113 37.9688C74.7895 37.9039 75.0676 37.8482 75.3365 37.7833C75.3921 37.6721 75.457 37.5701 75.5219 37.4774C75.5776 37.3846 75.6332 37.2919 75.6796 37.1992C75.7537 37.125 75.8186 37.0508 75.8928 36.9767C76.0597 36.9952 76.2173 37.0138 76.3842 37.0323L76.3657 37.0138C75.42 37.8761 74.5113 38.794 73.5285 39.6007C71.1548 41.557 68.6514 43.3372 65.9533 44.8208C65.3506 45.1546 64.7015 45.4884 63.969 45.5996C63.5518 45.6645 63.1995 46.0725 62.7822 46.2487C61.002 46.9997 59.1569 47.1573 57.2654 46.7308C56.4309 46.5454 55.5686 46.4434 54.7805 46.1374C52.1009 45.1082 50.6452 42.9849 49.922 40.3331C49.3471 38.2284 49.4955 36.0587 49.7644 33.9262C50.0425 31.7565 50.4227 29.6054 50.7194 27.4358C51.0532 25.0529 51.387 22.6607 51.0346 20.2407C50.9419 19.5824 50.8028 18.9241 50.6081 18.2936C50.0704 16.5227 49.31 15.8922 47.4649 15.9107C45.4714 15.9385 43.478 16.1703 41.5494 16.7267C37.8035 17.8022 34.206 19.2579 30.7383 21.0103C30.3674 21.1957 29.9131 21.2143 29.4031 21.3348C28.856 21.9746 28.1328 22.5309 27.1685 22.7534C26.9275 22.8091 26.6215 22.9203 26.501 23.1058C25.9261 24.0144 24.9804 24.3575 24.081 24.7655L24.1088 24.7933C24.0161 24.7933 23.9233 24.7933 23.8306 24.7933L23.877 24.7655C23.7194 24.8489 23.5617 24.9324 23.3948 25.0065L23.4227 24.9787C23.3392 25.0622 23.2558 25.1456 23.1723 25.2291L23.2001 25.2013C22.8571 25.3589 22.2451 25.3311 22.6345 26.0079L22.6624 25.9708C22.0782 26.1748 21.7537 26.9537 20.9656 26.759C20.9192 26.7497 20.8172 27.0835 20.6874 27.1669C20.5762 27.2318 20.3907 27.1484 20.2331 27.1391C20.2331 27.1577 20.2516 27.1669 20.2609 27.1855C20.2609 27.1669 20.2702 27.1391 20.2795 27.1205C19.9828 27.3802 19.6953 27.6398 19.3986 27.8994L19.4264 27.8809C19.343 27.9643 19.2595 28.0478 19.1761 28.1405L19.2132 28.1034C19.1297 28.1868 19.0463 28.2795 18.9536 28.363L18.9906 28.3259C18.7588 28.4835 18.5178 28.6412 18.286 28.8081L18.3231 28.771C18.2396 28.8544 18.1562 28.9379 18.0635 29.0306L18.0913 28.9935C17.6833 29.3273 17.2753 29.6611 16.8581 29.9856L16.8396 29.9763C16.2925 30.3101 15.6898 30.579 15.4673 31.2559L15.4209 31.2281C15.3375 31.3115 15.254 31.4042 15.1613 31.4877L15.1984 31.534C14.3639 31.8956 13.6871 32.452 13.2327 33.2493L13.1957 33.2308C13.1122 33.3142 13.0195 33.407 12.936 33.4904L12.9546 33.5182C12.7506 33.7315 12.5559 33.9447 12.3519 34.158L12.3055 34.1209C12.2221 34.2044 12.1294 34.2971 12.0459 34.3805L12.083 34.3434C11.9996 34.4269 11.9069 34.5196 11.8234 34.603L11.8605 34.5659C11.777 34.6494 11.6843 34.7421 11.6009 34.8256L11.638 34.7885C11.5545 34.8719 11.4618 34.9647 11.3783 35.0481L11.4154 35.0945C11.2764 35.2243 11.1466 35.3541 11.0075 35.4931L10.9704 35.4561C10.8869 35.5395 10.7942 35.6322 10.7108 35.7157L10.7479 35.6786C10.6644 35.762 10.5717 35.8548 10.4882 35.9382L10.5161 35.9753C10.3213 36.1329 10.1266 36.2998 9.93192 36.4574H9.9041C9.28288 37.1714 8.65239 37.8946 8.03116 38.6086L8.07752 38.5807C7.99408 38.6642 7.91063 38.7569 7.81791 38.8404L7.855 38.8867C7.20596 39.137 6.86289 39.6655 6.57546 40.2497H6.59401C5.85225 40.7782 5.48137 41.5663 4.93432 42.3359C5.20321 42.4471 5.36083 42.5121 5.50918 42.577C5.0734 42.9015 4.64689 43.226 4.15547 43.5876C4.15547 43.124 4.15547 42.716 4.15547 42.3081L4.22038 42.3359L4.18329 42.2895C3.98858 42.9942 3.33954 42.8829 2.76468 43.0869C2.68123 42.5306 3.07065 42.1875 3.22827 41.7796C3.24682 41.5941 3.26536 41.4087 3.28391 41.2325L3.35808 41.2511L3.30245 41.2047C3.29318 41.4087 3.27463 41.6034 3.26536 41.8074C3.00575 41.965 2.72759 42.0948 2.49579 42.2895C2.162 42.5677 1.86529 42.9015 1.55932 43.2074C0.891734 42.9571 0.891734 42.6326 1.27189 42.1875C3.56207 39.4801 5.73171 36.6522 8.17024 34.0838C10.6551 31.4598 13.344 29.0121 16.0514 26.6199C17.8687 25.0158 19.8993 23.6436 21.8279 22.1508C22.0782 21.9561 22.2729 21.6965 22.4955 21.4647C22.9127 21.5203 23.1816 21.4276 23.0332 20.9269C23.2465 20.899 23.4597 20.8712 23.6637 20.8434C23.9141 20.7136 24.1644 20.5931 24.4148 20.4633C24.4982 20.352 24.5817 20.2408 24.6651 20.1295C24.628 20.1109 24.5909 20.0924 24.5538 20.0739C24.5075 20.2037 24.4704 20.3335 24.4148 20.4633C24.0717 20.4169 23.7194 20.3427 23.6823 20.8527C23.469 20.8712 23.2558 20.899 23.0425 20.9269C22.8663 21.1123 22.6902 21.2978 22.514 21.4832C21.3643 22.1971 20.2146 22.9018 19.0741 23.625C18.2489 24.1442 17.4422 24.6913 16.6263 25.2383C16.515 25.3125 16.4038 25.4052 16.311 25.4979C15.7825 26.045 15.3004 26.6662 14.7163 27.1484C11.3134 29.9578 8.25369 33.1103 5.3701 36.4389C4.00712 38.0059 2.69977 39.6192 1.34606 41.1862C1.07717 41.5014 0.697023 41.7147 0.363231 41.9835C-0.183816 41.4179 -0.0540083 40.9636 0.363231 40.6298C2.23617 39.0814 3.58061 37.0601 5.17539 35.2613C8.11461 31.9605 11.23 28.8451 14.5957 25.9894C19.037 22.2342 23.775 18.8963 29.0229 16.3372C32.7874 14.4921 36.6352 12.8602 40.7705 12.0258C42.0037 11.7754 43.2554 11.5714 44.5072 11.5251C48.4941 11.3675 51.5446 13.2497 54.0388 16.1703C56.6998 19.295 57.0522 23.0687 56.9038 26.9444C56.8667 27.8252 56.5793 28.7061 56.6256 29.5776C56.7369 31.8771 56.3197 34.1209 56.1435 36.3925C56.0879 37.0972 56.0879 37.8019 56.0693 38.5065C56.0693 38.7662 56.1342 39.0629 56.0322 39.2761C55.5501 40.259 55.9859 41.1491 56.2455 42.0485C56.4866 42.8644 56.6349 42.9293 57.4508 42.7809C58.888 42.5213 60.1954 41.9094 61.4749 41.2233C64.2658 39.7305 66.6672 37.6813 69.1614 35.7806C69.4581 35.5581 69.7548 35.3448 70.0515 35.1223L70.0144 35.2057L70.0607 35.1408C71.8039 33.5368 73.5656 31.9605 75.2809 30.3287C78.0439 27.7047 80.7699 25.0251 83.5422 22.4011C87.4179 18.7294 91.3956 15.1782 95.7349 12.0536C100.028 8.96599 104.617 6.41621 109.643 4.73798C111.367 4.16312 113.138 3.7088 114.984 4.16312C115.512 4.29293 116.05 4.49691 116.513 4.7658C119.981 6.80563 121.873 9.92102 122.447 13.8338C123.004 17.6446 123.375 21.4832 123.903 25.294C124.209 27.4636 124.747 29.5776 125.693 31.5804C126.147 32.5539 126.777 32.9526 127.853 32.897C129.976 32.8043 131.923 32.1367 133.796 31.2095C136.346 29.9392 138.553 28.1683 140.5 26.1285C143.875 22.5866 147.204 18.9983 150.412 15.308C152.702 12.6655 155.215 10.2733 157.7 7.82554C158.21 7.31558 158.358 7.30633 159.378 7.29706C159.044 7.68648 158.803 7.98319 158.534 8.25207C157.681 9.12364 156.809 9.97664 155.984 10.8668C155.79 11.08 155.725 11.4231 155.604 11.7013C155.53 11.7754 155.456 11.8496 155.382 11.9238C154.612 11.9887 154.482 12.1277 154.287 13.0457C154.009 13.1662 153.74 13.2775 153.472 13.398C153.49 13.4073 153.499 13.4258 153.518 13.4444C153.518 13.4165 153.499 13.3887 153.49 13.3609C153.907 13.6205 154.148 13.4536 154.269 13.0179C154.844 12.851 155.196 12.4615 155.363 11.896C155.437 11.8218 155.511 11.7476 155.586 11.6642L155.521 11.692ZM6.89071 38.8125C6.9927 38.7847 7.10396 38.7569 7.20596 38.7291C7.26159 38.6178 7.31722 38.5158 7.37285 38.4046L7.42849 38.3582L7.40067 38.4231C7.33576 38.5344 7.28013 38.6364 7.20596 38.7383C7.10396 38.7754 7.00197 38.8033 6.90925 38.8404C6.80726 38.9145 6.70527 38.9887 6.60328 39.0722C6.32512 39.443 6.04696 39.8046 5.7688 40.1755C5.55554 40.4908 5.35156 40.8153 5.1383 41.1305C4.69325 41.1769 4.61907 41.4921 4.70252 41.9001C4.8416 41.6312 4.97141 41.3623 5.10122 41.0934C5.31447 40.7782 5.52773 40.4537 5.74098 40.1384C6.21385 39.9252 6.53837 39.5914 6.57546 39.0443C6.67745 38.9609 6.77945 38.8867 6.88144 38.8033L6.89071 38.8125ZM9.18089 36.4296C9.27361 36.3647 9.36633 36.2998 9.45905 36.2349L9.43123 36.17C9.43123 36.17 9.46832 36.2164 9.45905 36.2164C9.3756 36.2905 9.29215 36.3647 9.19943 36.4389C9.08817 36.5224 8.98618 36.5965 8.87491 36.68C8.74511 36.819 8.60603 36.9489 8.47622 37.0879C8.3835 37.1528 8.28151 37.227 8.18879 37.2919C8.10534 37.3939 8.02189 37.5052 7.93844 37.6072C7.9848 37.6257 8.02189 37.6443 8.06825 37.6721C8.09607 37.5423 8.12388 37.4032 8.16097 37.2734C8.25369 37.1992 8.35568 37.1343 8.4484 37.0601C8.58748 36.921 8.71729 36.7912 8.85637 36.6521C8.96763 36.578 9.06963 36.5038 9.18089 36.4296ZM77.6452 34.464L77.8678 34.1024C77.9605 34.056 78.0625 34.0096 78.1552 33.9633L78.2757 33.5831C78.4148 33.5831 78.5539 33.5831 78.693 33.5831C78.693 33.4348 78.693 33.2864 78.693 33.1381C78.8135 33.0175 78.9248 32.9063 79.0546 32.7857C79.1566 32.6745 79.2678 32.5725 79.3698 32.4612C79.7129 32.35 80.0559 32.2294 80.399 32.1182C80.501 32.0162 80.603 31.9142 80.705 31.8122C80.7235 31.7009 80.7513 31.5804 80.7699 31.4691C80.8997 31.4506 81.0202 31.4413 81.15 31.4228C81.2706 31.2651 81.3818 31.0982 81.4931 30.9313C81.5858 30.8664 81.6878 30.7923 81.7805 30.7274C81.8176 30.6161 81.8547 30.5048 81.8918 30.3936C81.9753 30.3379 82.068 30.2823 82.1514 30.2267C82.2163 30.1432 82.2812 30.0598 82.3554 29.9671C82.4388 29.9021 82.5223 29.8373 82.615 29.7816C82.6799 29.6982 82.7448 29.6147 82.8097 29.5313C82.8746 29.4571 82.9488 29.3736 83.0137 29.2995C83.0786 29.216 83.1435 29.1418 83.2177 29.0584C83.2919 28.9842 83.366 28.91 83.4402 28.8359C83.5144 28.7617 83.5886 28.6875 83.6628 28.6133C83.7369 28.5392 83.8111 28.465 83.8853 28.3908C83.9594 28.3167 84.0336 28.2425 84.1078 28.1683C84.1727 28.0848 84.2376 28.0014 84.3025 27.918C84.386 27.853 84.4694 27.7881 84.5436 27.714C84.5992 27.6212 84.6549 27.5193 84.7105 27.4265C84.8032 27.3616 84.8867 27.306 84.9794 27.2411C85.0443 27.1576 85.1092 27.0742 85.1741 26.9908C85.2483 26.9166 85.3224 26.8424 85.3966 26.7682C85.4615 26.6848 85.5172 26.592 85.5821 26.5086C86.0735 26.6662 86.2682 26.2212 86.5556 25.9986C87.0563 25.5999 87.5199 25.1549 87.9928 24.7284C88.0577 24.6357 88.1226 24.5522 88.1968 24.4595C88.2524 24.3668 88.2987 24.2648 88.3544 24.1721C88.4286 24.0979 88.512 24.033 88.5862 23.9588C88.6325 23.8568 88.6882 23.7548 88.7345 23.6528C88.818 23.5879 88.9014 23.523 88.9849 23.4581C89.022 23.3561 89.0683 23.2541 89.1054 23.1429C89.3279 23.0965 89.5875 23.115 89.7544 23.0038C90.0697 22.7813 90.32 22.4846 90.5982 22.2064C90.6631 22.1137 90.728 22.0302 90.7929 21.9375C90.8578 21.8541 90.9227 21.7706 90.9876 21.6872C91.0525 21.6037 91.1174 21.5203 91.1823 21.4368C91.5996 21.1865 92.0168 20.9361 92.4248 20.6858C92.4711 20.5838 92.5175 20.4818 92.5639 20.3798C92.638 20.3056 92.7122 20.2315 92.7864 20.1573C92.8235 20.046 92.8606 19.9255 92.8977 19.8142C93.1944 19.7401 93.4818 19.6751 93.7692 19.5917C93.8249 19.4897 93.8897 19.3877 93.9454 19.295C93.9825 19.193 94.0288 19.091 94.0659 18.989C94.3997 18.8036 94.7335 18.6274 95.058 18.442C95.1137 18.34 95.1693 18.238 95.2156 18.1267C95.4938 18.0433 95.772 17.9598 96.0408 17.8671C96.0779 17.7466 96.115 17.626 96.1521 17.5055C96.1799 17.3942 96.2077 17.2737 96.2448 17.1624C96.4674 17.1624 96.6899 17.1717 96.9031 17.1624C96.9402 17.0512 96.9773 16.9399 97.0144 16.8287C97.0515 16.7081 97.0886 16.5876 97.1257 16.467C97.3389 16.467 97.5522 16.4763 97.7562 16.467L97.886 16.0776C98.1178 15.9663 98.3588 15.8644 98.5906 15.7531C98.637 15.6233 98.6834 15.4842 98.7297 15.3544C98.9337 15.3822 99.1284 15.4008 99.3324 15.4193C99.3788 15.2895 99.4251 15.1504 99.4622 15.0299C99.4715 15.0299 99.49 15.0299 99.4993 15.0391C99.4993 15.0206 99.4993 15.0113 99.4993 14.9928C99.4437 15.1411 99.388 15.2895 99.3324 15.4379C99.1377 15.4193 98.943 15.4008 98.7575 15.3915C98.7205 15.5213 98.6741 15.6604 98.637 15.7902C98.3959 15.9014 98.1641 16.0034 97.9231 16.1147C97.8767 16.2445 97.8303 16.3836 97.7933 16.5134C97.58 16.5041 97.3667 16.4856 97.1628 16.4856C97.1257 16.6061 97.0886 16.7267 97.0515 16.8472C97.0144 16.9585 96.9866 17.079 96.9495 17.1903C96.727 17.1903 96.5137 17.1903 96.3005 17.1903C96.2634 17.3015 96.2356 17.4128 96.1985 17.5241C96.1614 17.6446 96.115 17.7651 96.0779 17.8857C95.7163 17.7002 95.466 17.8393 95.262 18.1545C95.2064 18.2565 95.16 18.3678 95.1044 18.4698C94.7706 18.646 94.4461 18.8314 94.1123 19.0168C94.0659 19.1188 94.0288 19.2208 93.9825 19.3135C93.9268 19.4155 93.8712 19.5268 93.8156 19.6288C93.5281 19.703 93.2314 19.7679 92.9533 19.8513C92.9162 19.9626 92.8698 20.0738 92.8327 20.1758C92.7586 20.25 92.6844 20.3242 92.6102 20.3891C92.5639 20.5004 92.5268 20.6023 92.4804 20.7136C91.8036 20.5374 91.6274 21.1772 91.238 21.4647C91.1731 21.5481 91.1082 21.6315 91.0433 21.715C90.9783 21.7984 90.9134 21.8819 90.8485 21.9653C90.7836 22.058 90.728 22.1508 90.6631 22.2435C89.9399 22.1879 89.7266 22.9667 89.161 23.1707C89.124 23.2727 89.0776 23.384 89.0405 23.4859C88.9571 23.5508 88.8736 23.6157 88.7902 23.6806C88.7438 23.7826 88.6882 23.8754 88.6325 23.9774C88.5584 24.0423 88.4749 24.1164 88.4007 24.1813C88.3451 24.2741 88.2987 24.376 88.2431 24.4595C88.1782 24.5522 88.1133 24.6449 88.0484 24.7377C87.798 24.8211 87.5014 24.8397 87.3159 24.9973C86.7318 25.4794 86.194 26.0079 85.647 26.5272C85.5821 26.6106 85.5171 26.694 85.4615 26.7868C85.3873 26.8609 85.3132 26.9351 85.239 27.0186C85.1741 27.102 85.1092 27.1762 85.0443 27.2596C84.9516 27.3246 84.8681 27.3802 84.7847 27.4451C84.729 27.5378 84.6641 27.6305 84.6085 27.7232C84.525 27.7882 84.4416 27.853 84.3674 27.918C84.3025 28.0014 84.2376 28.0848 84.1727 28.1683C84.0985 28.2425 84.0244 28.3167 83.9502 28.3908C83.876 28.465 83.8018 28.5392 83.7277 28.6133C83.6535 28.6875 83.5793 28.7617 83.5051 28.8359C83.4309 28.91 83.3568 28.9842 83.2826 29.0584C83.2177 29.1418 83.1528 29.216 83.0786 29.2902C83.0137 29.3644 82.9395 29.4478 82.8746 29.522C82.8097 29.6054 82.7448 29.6889 82.6799 29.7723C82.5965 29.8373 82.513 29.9021 82.4296 29.9671C82.3647 30.0505 82.2998 30.1432 82.2256 30.2267C82.1421 30.2823 82.0587 30.3379 81.966 30.3936C81.9289 30.5048 81.8918 30.6068 81.8454 30.7088C81.7527 30.7923 81.6693 30.8757 81.5766 30.9592C81.1222 30.8294 81.0666 31.0426 81.2057 31.4042C81.0851 31.432 80.9646 31.4506 80.8441 31.4784C80.8163 31.5804 80.7884 31.6824 80.7606 31.7844C80.6586 31.8863 80.5474 31.9976 80.4454 32.0996C80.1023 32.2109 79.7592 32.3314 79.4162 32.4427C79.3142 32.5447 79.2122 32.6559 79.1009 32.7579C78.9804 32.8785 78.8599 32.999 78.7393 33.1195C78.7393 33.2586 78.7393 33.407 78.7393 33.5461C78.6002 33.5461 78.4519 33.5553 78.3128 33.5646C78.285 33.6944 78.2665 33.8242 78.2294 33.9447C78.1274 34.0004 78.0254 34.0467 77.9327 34.1116C77.8585 34.2136 77.7843 34.3063 77.7101 34.3991C77.7009 34.4176 77.6916 34.4269 77.6823 34.4454C77.6823 34.4269 77.6823 34.4083 77.673 34.3898C77.673 34.4083 77.6823 34.4176 77.6916 34.4362L77.6452 34.464ZM159.628 11.7291C159.628 11.7291 159.554 11.7291 159.526 11.7291C159.563 11.7105 159.61 11.7012 159.647 11.692C159.628 11.6827 159.619 11.6734 159.6 11.6642C159.61 11.692 159.619 11.7105 159.628 11.7383V11.7291ZM11.3227 33.8335L11.3783 33.8613H11.3134C11.2022 33.954 11.0816 34.0374 10.9704 34.1302C10.9426 34.2414 10.924 34.362 10.8962 34.4733C10.924 34.4733 10.9518 34.4733 10.9797 34.4733C10.9797 34.362 10.9797 34.2507 10.9797 34.1487C11.0909 34.0375 11.2115 33.9262 11.3227 33.8242V33.8335ZM156.809 12.5821C156.772 12.7026 156.726 12.8139 156.689 12.9344H156.652C156.652 12.9344 156.689 12.9066 156.689 12.8973C156.717 12.7861 156.754 12.6841 156.791 12.5728C156.902 12.4893 157.004 12.4152 157.115 12.3317C157.162 12.2483 157.217 12.1648 157.264 12.0814C157.217 12.1741 157.18 12.2668 157.134 12.3596C157.032 12.4337 156.921 12.5079 156.819 12.5821H156.809ZM158.414 13.0457L158.386 13.1013C158.386 13.1013 158.386 13.055 158.395 13.055L158.441 13.0179L158.414 13.0457ZM141.9 30.8479C141.9 30.8479 141.974 30.8572 142.002 30.8664C141.956 30.8664 141.909 30.8757 141.872 30.8757C141.882 30.885 141.891 30.9035 141.9 30.9128C141.9 30.8942 141.9 30.8664 141.891 30.8479H141.9ZM14.6884 30.8015C14.6884 30.8015 14.7255 30.7737 14.7441 30.7552C14.7348 30.7737 14.7163 30.8015 14.707 30.8293C14.6235 30.9313 14.5401 31.0241 14.4567 31.1261C13.8911 31.2929 13.344 31.4784 13.4182 32.2387C12.9546 32.2202 12.9546 32.489 13.0566 32.8228C12.6764 32.9526 12.2963 33.0825 11.9254 33.2215C11.9161 33.305 11.9069 33.3884 11.8883 33.4719C11.9161 33.4719 11.9625 33.444 11.9625 33.444C11.9439 33.3606 11.9161 33.2772 11.8883 33.1937C12.2777 33.0639 12.6579 32.9434 13.0473 32.8136C13.1586 32.6188 13.2791 32.4149 13.3904 32.2201C13.7334 31.8493 14.0858 31.4784 14.4288 31.0982C14.5123 30.9962 14.5957 30.9035 14.6792 30.8015H14.6884ZM80.0745 30.0505C80.1672 29.9392 80.2599 29.8187 80.3527 29.7074C80.4176 29.6147 80.4917 29.522 80.5566 29.4293C80.6772 29.4015 80.7977 29.3736 80.9182 29.3551C80.9275 29.216 80.9368 29.0862 80.9553 28.9471C81.0944 28.9471 81.2428 28.9379 81.3818 28.9286C81.3818 28.7802 81.3818 28.6226 81.3818 28.4743C81.5302 28.4743 81.6785 28.4835 81.8269 28.4928C81.8269 28.3352 81.8176 28.1776 81.8084 28.0199C81.966 28.0199 82.1143 28.0385 82.272 28.0477C82.272 27.8901 82.2719 27.7325 82.2627 27.5749C82.411 27.5749 82.5594 27.5842 82.717 27.5934C82.717 27.4358 82.7077 27.2782 82.6985 27.1298C82.8561 27.1298 83.0044 27.1484 83.1621 27.1576C83.1528 27 83.1342 26.8424 83.125 26.6848L83.5793 26.7033C83.5793 26.5457 83.5793 26.3973 83.5793 26.2397C83.7277 26.2397 83.8853 26.249 84.0336 26.2583C84.3118 26.0635 84.5899 25.8688 84.8681 25.6649C84.9701 25.5721 85.0721 25.4702 85.1834 25.3774C85.2019 25.2476 85.2204 25.1271 85.239 24.9973C85.3688 24.988 85.4986 24.9695 85.6191 24.9602C85.6377 24.8118 85.6469 24.6728 85.6655 24.5244C85.8046 24.5151 85.9344 24.4966 86.0735 24.4873C86.0827 24.3482 86.1013 24.2184 86.1106 24.0793H86.5278C86.5278 23.9124 86.5278 23.7548 86.5278 23.5972C86.6761 23.5972 86.8338 23.5972 86.9821 23.6065C86.9728 23.4396 86.9543 23.282 86.945 23.1151C87.0841 23.1151 87.2139 23.1243 87.353 23.1336C87.353 22.976 87.3715 22.8184 87.3808 22.67C87.5292 22.67 87.6868 22.6885 87.8351 22.6978L87.8166 22.6422L87.8351 22.6885C87.6775 22.6885 87.5292 22.6886 87.3715 22.6793C87.3715 22.8369 87.3715 22.9945 87.3715 23.1429C87.2232 23.1429 87.0841 23.1429 86.945 23.1429C86.9636 23.3005 86.9728 23.4674 86.9914 23.625C86.8338 23.625 86.6854 23.625 86.5278 23.6436C86.5278 23.7919 86.5278 23.9403 86.5371 24.0793C86.398 24.0979 86.2496 24.1071 86.1106 24.135C86.1013 24.2555 86.092 24.3761 86.0735 24.4966C85.9344 24.5244 85.7953 24.5429 85.6562 24.5707C85.647 24.7006 85.6377 24.8304 85.6284 24.9602C85.4986 24.988 85.3688 25.0065 85.239 25.0343C85.2204 25.1363 85.1926 25.2476 85.1648 25.3496C85.0628 25.4516 84.9608 25.5536 84.8588 25.6556C84.4323 25.6463 84.1727 25.841 84.0522 26.249C83.8945 26.249 83.7462 26.249 83.5886 26.249C83.5886 26.3973 83.6071 26.5457 83.6071 26.7033C83.4495 26.7033 83.3011 26.7033 83.1435 26.7033C83.1621 26.8517 83.1713 27.0093 83.1806 27.1576C83.023 27.1576 82.8654 27.1576 82.7077 27.1484C82.717 27.2967 82.7263 27.4544 82.7355 27.6027C82.5779 27.6027 82.4296 27.6027 82.272 27.6027C82.272 27.7511 82.2905 27.9087 82.2905 28.057C82.1329 28.057 81.9752 28.0478 81.8176 28.0385C81.8269 28.1961 81.8362 28.3445 81.8454 28.5021C81.6878 28.5021 81.5395 28.5021 81.3818 28.5021C81.3818 28.6504 81.3911 28.7895 81.4004 28.9379C81.252 28.9564 81.1037 28.9657 80.9646 28.9935C80.9646 29.114 80.9553 29.2346 80.9461 29.3551C80.8255 29.3922 80.705 29.4386 80.5844 29.4849C80.5288 29.5684 80.4639 29.6611 80.4083 29.7538C80.3156 29.8465 80.2228 29.9485 80.1301 30.0412C80.1301 30.0412 80.1208 30.032 80.1116 30.0227C80.1116 30.0412 80.1116 30.0598 80.1023 30.0783L80.0745 30.0505ZM143.319 29.8465C143.393 29.726 143.476 29.5962 143.551 29.4756L143.866 29.3644L143.968 29.0306C144.06 28.9749 144.153 28.9286 144.246 28.873C144.302 28.7802 144.357 28.6783 144.404 28.5855C144.478 28.5114 144.543 28.4279 144.617 28.3537C144.691 28.2796 144.756 28.1961 144.83 28.1219C144.904 28.0478 144.978 27.9736 145.043 27.8994C145.117 27.8252 145.192 27.751 145.266 27.6769C145.34 27.6027 145.405 27.5192 145.479 27.4451C145.563 27.3802 145.637 27.306 145.72 27.2411C145.785 27.1669 145.859 27.0835 145.924 27.0093C145.998 26.9351 146.082 26.8702 146.156 26.796L146.378 26.5735C146.453 26.4993 146.527 26.4252 146.601 26.351C146.675 26.2768 146.759 26.2119 146.833 26.1377C146.907 26.0728 146.99 25.9986 147.065 25.9337C147.139 25.8596 147.213 25.7854 147.287 25.7112C147.361 25.637 147.435 25.5629 147.51 25.4887C147.593 25.4238 147.677 25.3589 147.76 25.294C147.834 25.2198 147.918 25.1549 147.992 25.0807C148.085 25.0251 148.177 24.9695 148.27 24.9138C148.353 24.8397 148.437 24.7655 148.52 24.7006C148.604 24.6264 148.687 24.5615 148.78 24.4873C148.965 24.2277 149.179 23.9866 149.327 23.7085C149.447 23.4767 149.494 23.2078 149.577 22.9482C149.689 22.874 149.791 22.7998 149.902 22.7256C150.013 22.6978 150.124 22.67 150.245 22.6515C150.301 22.568 150.356 22.4753 150.412 22.3919C150.532 22.3548 150.653 22.3177 150.773 22.2806C150.81 22.1693 150.838 22.058 150.875 21.9375C150.996 21.9097 151.107 21.8726 151.228 21.8448C151.339 21.4739 151.46 21.1123 151.58 20.7414C151.682 20.658 151.793 20.5745 151.895 20.4818C152.016 20.4633 152.136 20.4447 152.257 20.4262C152.322 20.3335 152.377 20.25 152.442 20.1573C152.563 20.1202 152.683 20.0924 152.813 20.0553C152.841 19.9348 152.869 19.8142 152.897 19.703C153.166 19.4341 153.62 19.2579 153.379 18.7387C153.49 18.6645 153.611 18.5996 153.722 18.5254L154.009 18.3771C154.102 18.3307 154.204 18.2844 154.297 18.238C154.352 18.136 154.408 18.034 154.464 17.9413C154.584 17.9042 154.695 17.8671 154.816 17.8207C154.983 17.4962 155.15 17.1717 155.307 16.8472C155.363 16.7637 155.419 16.671 155.474 16.5876C155.576 16.5412 155.678 16.4856 155.771 16.4392C155.836 16.3558 155.901 16.2723 155.966 16.1981C156.086 16.1147 156.216 16.0405 156.337 15.9663C156.318 15.9571 156.29 15.9478 156.272 15.9293C156.29 15.9571 156.309 15.9756 156.327 16.0034C156.216 16.0776 156.096 16.1518 155.984 16.226C155.919 16.3094 155.864 16.3929 155.799 16.4763C155.697 16.5227 155.604 16.569 155.502 16.6154C155.446 16.6988 155.391 16.7916 155.335 16.875C154.937 17.0604 154.64 17.3108 154.816 17.8115C154.705 17.8579 154.603 17.9135 154.491 17.9598C154.436 18.0526 154.38 18.1546 154.315 18.2473C154.223 18.3029 154.13 18.3493 154.037 18.4049C153.944 18.4605 153.842 18.5161 153.75 18.5718C153.629 18.6274 153.509 18.6831 153.388 18.7387C153.23 19.0725 153.082 19.397 152.924 19.7308C152.887 19.842 152.85 19.9533 152.813 20.0553C152.702 20.1017 152.591 20.1388 152.479 20.1851C152.415 20.2778 152.359 20.3613 152.294 20.454C152.173 20.4725 152.044 20.4911 151.932 20.5282C151.821 20.6024 151.71 20.6765 151.599 20.7414C151.487 21.1123 151.367 21.4739 151.256 21.8448C151.144 21.8819 151.042 21.919 150.931 21.9653C150.885 22.0673 150.848 22.1786 150.792 22.2806C150.681 22.3269 150.569 22.3733 150.458 22.4197C150.403 22.5031 150.338 22.5958 150.282 22.6793C150.171 22.7071 150.05 22.7349 149.939 22.772C149.828 22.8369 149.707 22.8925 149.596 22.9574C149.401 23.2449 149.179 23.523 149.012 23.8383C148.9 24.0423 148.873 24.2833 148.798 24.4966C148.715 24.5708 148.641 24.6449 148.548 24.7191C148.474 24.7933 148.39 24.8675 148.307 24.9417C148.214 25.0066 148.131 25.0622 148.038 25.1271C147.964 25.2013 147.881 25.2754 147.806 25.3403C147.723 25.4052 147.639 25.4701 147.556 25.535C147.482 25.6092 147.408 25.6834 147.333 25.7576C147.259 25.8317 147.185 25.9059 147.111 25.9801C147.037 26.045 146.953 26.1192 146.879 26.1841C146.805 26.2583 146.722 26.3232 146.647 26.3973C146.573 26.4715 146.499 26.5457 146.425 26.6199C146.351 26.6941 146.276 26.7682 146.212 26.8424C146.137 26.9166 146.054 26.9815 145.98 27.0557C145.906 27.1298 145.841 27.2133 145.767 27.2875C145.683 27.3524 145.6 27.4173 145.525 27.4914C145.451 27.5656 145.386 27.6398 145.312 27.7232C145.238 27.7974 145.164 27.8716 145.09 27.9458C145.015 28.0199 144.941 28.0941 144.876 28.1683C144.802 28.2425 144.737 28.3259 144.663 28.4001C144.589 28.4743 144.524 28.5484 144.45 28.6319C144.394 28.7246 144.339 28.8173 144.283 28.9101C144.19 28.9657 144.098 29.0213 144.014 29.077C143.977 29.1789 143.94 29.2809 143.903 29.3829C143.801 29.4293 143.699 29.4756 143.597 29.522C143.532 29.6333 143.458 29.7352 143.393 29.8465C143.365 29.8372 143.347 29.828 143.319 29.8187C143.337 29.8187 143.356 29.8094 143.374 29.8002C143.365 29.828 143.356 29.8465 143.337 29.8743L143.319 29.8465ZM101.91 13.5649L101.854 13.5835L101.891 13.5371C101.966 13.4166 102.04 13.296 102.114 13.1755C102.262 13.1384 102.411 13.1106 102.559 13.0735C102.624 12.953 102.689 12.8324 102.754 12.7119C102.791 12.7212 102.828 12.7397 102.856 12.749C102.828 12.749 102.8 12.749 102.772 12.7582C102.707 12.8695 102.652 12.99 102.587 13.1013C102.429 13.1384 102.281 13.1662 102.133 13.2126C102.058 13.3331 101.993 13.4536 101.919 13.5742L101.91 13.5649ZM17.3588 28.5948L17.3866 28.6226C17.2939 28.7061 17.2012 28.7895 17.1084 28.873C16.9508 28.9008 16.8025 28.9379 16.6541 28.9749C16.5892 29.0955 16.5243 29.2253 16.4687 29.3458C16.3389 29.4757 16.1998 29.6054 16.07 29.7353L15.8196 30.0041C15.7084 30.032 15.5971 30.0598 15.4766 30.0969C15.4951 30.1247 15.5044 30.1618 15.5229 30.1896C15.6156 30.1247 15.7084 30.0505 15.7918 29.9856C15.8753 29.8929 15.9587 29.8094 16.0329 29.7167C16.172 29.5869 16.3018 29.4571 16.4409 29.318C16.515 29.1882 16.5799 29.0584 16.6541 28.9286C16.7932 28.9008 16.9415 28.873 17.0806 28.8451C17.1733 28.7617 17.2661 28.6782 17.3588 28.5948ZM155.817 14.0378C155.817 14.0378 155.762 14.0378 155.734 14.0378C155.752 14.0285 155.771 14.0192 155.79 14.0007L156.16 13.8245C156.179 13.6762 156.188 13.5278 156.207 13.3795C156.151 13.3795 156.096 13.3887 156.049 13.398C156.086 13.5371 156.133 13.6762 156.17 13.8245C156.058 13.8987 155.938 13.9729 155.827 14.0471L155.817 14.0378ZM145.906 24.7284C146.008 24.682 146.11 24.6357 146.202 24.5893C146.267 24.5059 146.323 24.4131 146.388 24.3297C146.462 24.2741 146.527 24.2184 146.601 24.1628C146.703 24.0886 146.796 24.0144 146.898 23.9495C146.981 23.8846 147.055 23.8105 147.139 23.7456C147.231 23.6807 147.315 23.625 147.408 23.5601C147.463 23.4581 147.51 23.3654 147.565 23.2634C147.677 23.2263 147.797 23.18 147.918 23.1429C147.936 23.0131 147.945 22.8832 147.964 22.7442L148.001 22.7627C148.001 22.7627 147.945 22.772 147.955 22.772C148.01 22.8369 148.066 22.9111 148.131 22.976C148.066 23.0223 147.992 23.078 147.927 23.1243C147.816 23.1707 147.714 23.2263 147.602 23.2727C147.547 23.3654 147.5 23.4581 147.435 23.5509C147.352 23.6158 147.269 23.6899 147.176 23.7548C147.102 23.829 147.018 23.8939 146.935 23.9681C146.833 24.0423 146.74 24.1164 146.638 24.1906C146.564 24.2462 146.499 24.3019 146.425 24.3668C146.36 24.4502 146.295 24.5337 146.23 24.6171C146.128 24.6635 146.026 24.7191 145.933 24.7747C145.822 24.8304 145.702 24.886 145.59 24.9417C144.867 25.7298 144.144 26.5179 143.421 27.2967L143.476 27.3245C143.476 27.3245 143.439 27.2782 143.43 27.2596C144.385 26.8888 144.951 26.0821 145.6 25.3589C145.665 25.2847 145.6 25.09 145.59 24.9509C145.692 24.8767 145.804 24.8118 145.906 24.7377V24.7284ZM156.949 15.1597C156.819 15.1782 156.698 15.1968 156.568 15.2246L156.541 15.2617C156.541 15.2617 156.541 15.206 156.541 15.2153C156.68 15.1875 156.819 15.1597 156.958 15.1319C156.958 15.1133 156.949 15.1041 156.939 15.0855V15.1597H156.949ZM145.525 22.8184C145.6 22.7535 145.683 22.6793 145.757 22.6144C145.831 22.5402 145.906 22.466 145.98 22.3826C146.063 22.3177 146.156 22.2528 146.239 22.1971C146.323 22.1322 146.406 22.058 146.49 21.9931C146.555 21.9004 146.62 21.817 146.684 21.7243C146.796 21.6686 146.898 21.6223 147.009 21.5666L146.972 21.4832C146.972 21.4832 146.99 21.5296 147 21.5481C146.898 21.613 146.805 21.6779 146.703 21.7521C146.638 21.8448 146.573 21.9283 146.508 22.0117C146.425 22.0859 146.341 22.16 146.258 22.2249C146.174 22.2898 146.082 22.3548 145.998 22.4197C145.924 22.4938 145.85 22.568 145.776 22.6422C145.702 22.7164 145.618 22.7813 145.544 22.8555C145.451 22.9296 145.368 23.0038 145.275 23.0687C145.182 23.1243 145.08 23.1707 145.006 23.2449C142.54 25.7668 140.074 28.2795 137.348 30.5141C137.32 30.5326 137.31 30.579 137.301 30.6161C137.255 30.7366 137.208 30.8572 137.162 30.987L137.06 30.9499C137.06 30.9499 137.125 30.9499 137.144 30.9499C137.19 30.8293 137.236 30.7088 137.283 30.5883C137.7 30.3843 138.163 30.2452 138.525 29.9671C141.029 28.1034 143.087 25.7668 145.145 23.4396C145.229 23.3468 145.229 23.1707 145.266 23.0409C145.359 22.9667 145.442 22.8925 145.535 22.8184H145.525ZM148.557 21.9004C148.678 21.8448 148.789 21.7799 148.91 21.7243C148.956 21.613 149.002 21.4924 149.049 21.3812C149.188 21.3812 149.327 21.3719 149.466 21.3626C149.475 21.2236 149.485 21.0845 149.494 20.9454C149.633 20.9454 149.772 20.9269 149.911 20.9269C149.92 20.7878 149.939 20.658 149.948 20.5189C149.976 20.5189 150.013 20.5189 150.041 20.5004C150.059 20.5004 150.059 20.4633 150.069 20.4447C150.022 20.4818 149.976 20.5096 149.93 20.5467C150.05 20.6765 150.273 20.8156 149.911 20.9176C149.763 20.9361 149.624 20.9547 149.475 20.9732C149.475 21.1031 149.475 21.2236 149.466 21.3441C149.327 21.3627 149.188 21.3905 149.049 21.4183C149.012 21.5295 148.975 21.6315 148.928 21.7335C148.798 21.7984 148.669 21.8726 148.539 21.9375C148.548 21.9375 148.567 21.9561 148.576 21.9653C148.576 21.9468 148.557 21.919 148.548 21.9004H148.557ZM89.1147 21.5852C89.1332 21.4461 89.1518 21.3163 89.1703 21.1772C89.2816 21.1494 89.3928 21.1216 89.5041 21.0938C89.5319 20.9639 89.569 20.8434 89.5968 20.7136C89.7174 20.6858 89.8286 20.6673 89.9492 20.6394C89.9492 20.6394 89.977 20.658 89.9677 20.658C89.8472 20.6858 89.7266 20.7136 89.6154 20.7507C89.5875 20.8712 89.5597 20.9918 89.5319 21.1123C89.4114 21.1401 89.3001 21.1772 89.1889 21.2143C89.1703 21.3441 89.1518 21.4646 89.1239 21.5852C89.0498 21.6872 88.9756 21.7892 88.9014 21.8912C88.7345 22.021 88.5769 22.1508 88.41 22.2806C88.3822 22.262 88.3544 22.2528 88.3266 22.2342C88.3451 22.2342 88.3729 22.225 88.3915 22.2157C88.3822 22.2435 88.3729 22.2713 88.3636 22.2991C88.5398 22.16 88.716 22.021 88.8829 21.8633C88.9571 21.7706 89.0312 21.6779 89.1054 21.5759L89.1147 21.5852ZM154.223 15.818L153.972 16.0034C153.898 16.0776 153.824 16.1425 153.75 16.2167C153.629 16.2538 153.499 16.2909 153.379 16.328C153.379 16.467 153.379 16.6154 153.379 16.7545C153.332 16.8935 153.277 17.0326 153.23 17.1717C153.193 17.1439 153.147 17.1253 153.11 17.0975C153.147 17.1346 153.184 17.1717 153.212 17.1995C153.268 17.0419 153.323 16.8936 153.379 16.7267C153.379 16.5968 153.379 16.4671 153.379 16.3372C153.49 16.2909 153.611 16.2353 153.722 16.1889C153.796 16.124 153.87 16.0498 153.954 15.9849C154.037 15.92 154.121 15.8551 154.195 15.7809C154.297 15.6975 154.408 15.6233 154.51 15.5398C154.519 15.5398 154.529 15.5398 154.529 15.5398C154.417 15.6326 154.315 15.7253 154.204 15.8273L154.223 15.818ZM147.983 20.1573C148.094 20.1017 148.205 20.046 148.307 19.9997C148.307 19.9997 148.316 19.9997 148.307 19.9904C148.196 20.046 148.085 20.1109 147.973 20.1666L147.936 20.2037L147.973 20.1573H147.983ZM90.5518 20.2778C90.6446 20.1666 90.728 20.046 90.8207 19.9348C90.932 19.8884 91.0525 19.8513 91.1638 19.805C91.1638 19.6473 91.1452 19.499 91.136 19.3414L91.5996 19.4248C91.581 19.2486 91.5717 19.0632 91.5532 18.887C91.581 18.887 91.6088 18.8685 91.6367 18.8685C91.6181 18.9056 91.5903 18.9427 91.5718 18.9797C91.5718 18.9519 91.5625 18.9241 91.5532 18.8963C91.5717 19.0725 91.5903 19.2579 91.5903 19.4248C91.4327 19.397 91.2843 19.3784 91.1267 19.3599C91.136 19.5082 91.1452 19.6566 91.1545 19.8142C91.0432 19.8606 90.9413 19.9162 90.83 19.9626C90.7465 20.0646 90.6631 20.1758 90.5889 20.2686C90.5611 20.2593 90.5426 20.2407 90.5147 20.2315C90.5333 20.2315 90.5518 20.2222 90.5797 20.2129C90.5704 20.2315 90.5518 20.2593 90.5426 20.2778H90.5518ZM95.0209 16.4485L94.8077 16.6803C94.6964 16.6803 94.5944 16.6803 94.4924 16.671L94.5388 16.6154L94.5017 16.6525C94.5944 16.6525 94.6871 16.6525 94.7799 16.6525C94.8633 16.5783 94.9468 16.5041 95.0302 16.4299V16.3836L95.0117 16.4578L95.0209 16.4485ZM151.079 19.3414C151.163 19.2301 151.246 19.1096 151.33 18.9983H151.395C151.395 18.9983 151.339 19.0261 151.348 19.0354C151.265 19.1281 151.191 19.2208 151.116 19.3135C151.107 19.3135 151.098 19.3043 151.079 19.295C151.079 19.3135 151.079 19.3321 151.079 19.3414ZM92.3228 18.7016C92.397 18.5532 92.4619 18.4049 92.536 18.2565C92.6751 18.2473 92.8049 18.238 92.944 18.2287V18.1545C92.944 18.1545 92.944 18.1916 92.944 18.2102C92.8049 18.238 92.6658 18.2565 92.536 18.2936C92.4804 18.4234 92.4248 18.5532 92.3784 18.6738C92.3506 18.6738 92.3321 18.6552 92.3042 18.6552L92.3599 18.6367C92.3599 18.6367 92.3413 18.683 92.3228 18.7016ZM93.7414 17.5148C93.7414 17.5148 93.6858 17.4777 93.6672 17.4684C93.695 17.4684 93.7321 17.4684 93.7599 17.4777C93.7507 17.4684 93.7321 17.4591 93.7229 17.4499L93.7414 17.5148ZM100.797 14.2325C100.566 14.3438 100.334 14.455 100.102 14.5755V14.6219L100.121 14.557C100.352 14.4457 100.575 14.3252 100.797 14.2047L100.816 14.149L100.797 14.2418V14.2325ZM69.6342 37.0601C70.0144 36.8561 70.4223 36.6892 70.7561 36.4296C74.2053 33.7315 77.3578 30.7088 80.4454 27.612C84.1356 23.9124 87.9464 20.352 91.9705 17.0141C96.2077 13.5093 100.742 10.4402 105.702 8.02953C106.509 7.6401 107.325 7.2507 108.141 6.86127L108.057 6.65729C107.659 6.80564 107.26 6.93543 106.871 7.10233C102.235 9.10508 97.886 11.5993 93.9454 14.7703C92.0539 16.2909 90.1902 17.8486 88.3915 19.4712C85.9251 21.6964 83.5422 23.9959 81.1222 26.2768C79.7871 27.5378 78.489 28.8359 77.1353 30.0691C75.1696 31.8678 73.1669 33.611 71.2012 35.4005C70.6449 35.9104 70.172 36.5131 69.6528 37.0787C68.707 37.2178 68.3269 38.0615 67.4924 38.5622C67.8077 38.6734 67.956 38.7662 67.9838 38.7383C68.5401 38.182 69.0872 37.6165 69.6342 37.0509V37.0601ZM152.924 14.251C153.008 14.2974 153.082 14.3623 153.175 14.3901C153.193 14.3901 153.286 14.251 153.277 14.2325C153.221 14.1583 153.138 14.1027 153.064 14.0471C153.026 14.1027 152.989 14.1583 152.934 14.251H152.924ZM64.479 40.9636C64.4976 40.9173 64.5254 40.8616 64.5439 40.8153C64.5161 40.806 64.4697 40.7875 64.4697 40.7875C64.4419 40.8338 64.4234 40.8895 64.4048 40.9358C64.4326 40.9451 64.4512 40.9544 64.479 40.9636ZM10.3306 35.1501L10.2843 35.0852L10.2472 35.1594H10.3306V35.1501ZM63.2829 44.8022C63.2551 44.7466 63.2273 44.6631 63.1902 44.6539C63.1346 44.6446 63.0789 44.691 63.014 44.7188C63.0604 44.793 63.0975 44.8579 63.1438 44.9321C63.1902 44.8857 63.2366 44.8393 63.2829 44.8022ZM110.505 8.84547L110.412 8.88256C110.412 8.88256 110.487 8.93818 110.533 8.95672C110.533 8.95672 110.57 8.91963 110.589 8.89181C110.561 8.87327 110.533 8.86401 110.505 8.84547ZM96.5601 14.9001V14.9835L96.6435 14.9464L96.5601 14.9001ZM27.4652 18.5254L27.5023 18.4791H27.4467L27.4652 18.5254ZM101.363 13.7782L101.326 13.8245H101.382L101.363 13.7782ZM4.98995 39.1371L4.95287 39.1834H5.0085L4.98995 39.1371ZM62.6802 44.7559L62.6246 44.7188V44.7744L62.6802 44.7559Z" fill="#E31524"/>
<path d="M163.402 4.33003C163.059 4.2744 162.808 4.18168 162.567 4.19096C160.722 4.2744 158.877 4.40419 157.032 4.45982C152.813 4.58963 148.594 4.66381 144.413 3.91278C143.754 3.79224 143.133 3.66244 142.595 3.18957C142.252 2.89286 141.724 2.80015 141.279 2.61471C140.861 2.42927 140.834 2.16039 141.214 1.78952C141.056 1.6968 140.917 1.60407 140.778 1.52062C140.351 1.261 140.453 0.908663 140.759 0.732495C141.093 0.537783 141.52 0.417241 141.9 0.435785C147.528 0.723216 153.147 0.667584 158.775 0.203985C160.435 0.064905 162.094 0.018544 163.763 0C164.477 0 165.145 0.0649198 165.72 0.769591C166.146 1.29809 166.888 1.60407 167.361 2.1882C168.205 3.23594 168.733 4.37639 168.64 5.74864C168.492 7.74212 168.325 9.72633 168.177 11.7198C167.954 14.659 168.316 17.5426 169.178 20.352C169.28 20.6951 169.484 21.0196 169.66 21.3441C169.725 21.4739 169.864 21.5574 169.938 21.6872C170.476 22.6793 170.393 22.9574 169.326 23.6714C168.956 23.3654 168.566 23.0409 168.158 22.7257C168.028 22.6237 167.843 22.4753 167.722 22.5031C167.083 22.6515 166.74 22.2157 166.434 21.8355C166.026 21.3163 165.664 20.7414 165.386 20.1388C163.995 17.0419 163.012 13.8246 162.855 10.4217C162.79 9.06802 163.003 7.69577 163.124 6.33278C163.179 5.67447 163.309 5.02543 163.402 4.33003Z" fill="#E31524"/>
<path d="M153.944 19.9348C153.722 20.2686 153.545 20.6395 153.286 20.9455C150.328 24.3483 147.268 27.6491 143.949 30.6996C143.689 30.9407 143.356 31.0983 143.059 31.293L143.077 31.3116C143.226 31.1168 143.356 30.8943 143.522 30.7181C145.497 28.7247 147.482 26.7312 149.447 24.7284C149.67 24.5059 149.809 24.1999 149.985 23.931L149.948 23.9774C150.041 23.894 150.124 23.8012 150.217 23.7178L150.18 23.7549C150.263 23.6714 150.356 23.5787 150.439 23.4953L150.402 23.5416C151.005 22.8555 151.617 22.1787 152.22 21.4925L152.182 21.5389C152.275 21.4554 152.359 21.3627 152.451 21.2793L152.414 21.3164C152.943 20.8713 153.471 20.417 154 19.9719L153.963 19.9534L153.944 19.9348Z" fill="#E31524"/>
<path d="M84.7568 29.0583C84.6455 29.2345 84.5528 29.4478 84.4044 29.5961C82.7169 31.2558 81.0109 32.9062 79.3049 34.5474C79.1565 34.6865 78.934 34.7514 78.7485 34.8441L78.7671 34.8626C78.8598 34.7143 78.934 34.5381 79.0545 34.4176C80.6864 32.8135 82.3275 31.2095 83.9779 29.624C84.2097 29.4014 84.5064 29.2624 84.7753 29.0769L84.7568 29.0583Z" fill="#E31524"/>
<path d="M91.8776 22.3826C91.7571 22.5587 91.6644 22.7627 91.516 22.9018C89.8007 24.5059 88.0668 26.1099 86.333 27.7047C86.2124 27.8159 86.027 27.8716 85.8694 27.9458L85.8879 27.9643C86.8059 27.0278 87.7331 26.0914 88.651 25.1363C88.9477 24.8304 89.1888 24.478 89.4576 24.1535L89.4206 24.1906C89.7914 23.931 90.1716 23.6714 90.5332 23.4117C90.9875 23.078 91.4418 22.7442 91.8962 22.4104L91.8776 22.3918V22.3826Z" fill="#E31524"/>
<path d="M94.7705 19.9348C93.8063 20.7507 92.842 21.5667 91.8777 22.3826L91.8962 22.4012C92.1744 22.0859 92.4618 21.78 92.74 21.4647C92.9161 21.2607 93.0738 21.0382 93.2407 20.8157L93.2036 20.8528C93.7321 20.5561 94.2606 20.2594 94.7891 19.9534L94.7705 19.9348Z" fill="#E31524"/>
<path d="M156.188 17.4869C155.595 18.1545 155.001 18.8128 154.417 19.4804L154.436 19.5082C154.89 18.7201 155.391 17.9691 156.216 17.5055L156.188 17.4869Z" fill="#E31524"/>
<path d="M78.3034 35.2892C77.8491 35.9753 77.3113 36.5594 76.5139 36.8283L76.5417 36.8654C76.8384 36.4853 77.1444 36.1051 77.4411 35.725L77.3948 35.762C77.4782 35.6693 77.5709 35.5859 77.6544 35.4932L77.6173 35.5302C77.7007 35.4375 77.7934 35.3541 77.8769 35.2614L77.8305 35.2984C77.9882 35.2984 78.1458 35.2984 78.3127 35.2984L78.2941 35.2799L78.3034 35.2892Z" fill="#E31524"/>
<path d="M98.5537 17.0419C97.9603 17.4869 97.3669 17.932 96.7827 18.377L96.8013 18.3956C97.0238 18.0896 97.2556 17.7836 97.4781 17.4777L97.441 17.5148C97.8212 17.3664 98.2013 17.218 98.5815 17.0697L98.5629 17.0512L98.5537 17.0419Z" fill="#E31524"/>
<path d="M143.059 31.2837C142.716 31.9327 142.197 32.3778 141.501 32.6188L141.52 32.6374C141.743 32.3314 141.974 32.0254 142.197 31.7195L142.151 31.7565C142.234 31.6638 142.327 31.5804 142.41 31.4877L142.373 31.5247C142.456 31.432 142.549 31.3486 142.633 31.2559L142.586 31.2929C142.744 31.2929 142.902 31.2929 143.068 31.2929L143.05 31.2744L143.059 31.2837Z" fill="#E31524"/>
<path d="M100.779 15.4841C100.26 15.855 99.7404 16.2259 99.2212 16.5968L99.2397 16.6246C99.6106 16.2444 99.9908 15.8643 100.362 15.4841L100.315 15.5212C100.473 15.5212 100.631 15.5212 100.788 15.5212L100.77 15.5027L100.779 15.4841Z" fill="#E31524"/>
<path d="M96.7734 18.3771C96.4767 18.5903 96.18 18.8129 95.8833 19.0261L95.9018 19.0632C96.1985 18.8407 96.4952 18.6181 96.792 18.3956L96.7734 18.3771Z" fill="#E31524"/>
<path d="M95.6516 19.2765C95.3549 19.499 95.0675 19.7123 94.7708 19.9348L94.7893 19.9534C95.086 19.7308 95.3827 19.5083 95.6794 19.295L95.6516 19.2765Z" fill="#E31524"/>
<path d="M101.428 15.0392C101.354 15.3915 101.131 15.5306 100.77 15.4842L100.788 15.5028C100.862 15.3451 100.946 15.1875 101.02 15.0299L100.974 15.067C101.131 15.067 101.289 15.067 101.446 15.067L101.419 15.0392H101.428Z" fill="#E31524"/>
<path d="M158.525 14.3437L158.191 15.0299L158.219 15.0577C158.219 14.9001 158.219 14.7424 158.219 14.5848L158.182 14.6219C158.274 14.5292 158.358 14.4457 158.451 14.353L158.413 14.3808C158.469 14.3994 158.515 14.3808 158.553 14.3345H158.525V14.3437Z" fill="#E31524"/>
<path d="M102.559 14.3716C102.336 14.5199 102.123 14.6683 101.901 14.8166V14.8445C102.132 14.6961 102.355 14.5477 102.577 14.3994L102.559 14.3716Z" fill="#E31524"/>
<path d="M99.2211 16.5876C98.9985 16.736 98.776 16.8843 98.5535 17.042L98.572 17.0605C98.7945 16.9122 99.0171 16.7638 99.2396 16.6155L99.2211 16.5876Z" fill="#E31524"/>
<path d="M85.1929 28.6133C85.0445 28.7616 84.8962 28.91 84.7478 29.0583L84.7663 29.0769C84.9147 28.9285 85.0631 28.7802 85.2114 28.6318L85.1836 28.6133H85.1929Z" fill="#E31524"/>
<path d="M156.624 17.0513L156.179 17.4871L156.207 17.5056C156.355 17.3572 156.503 17.2089 156.652 17.0606L156.624 17.0513Z" fill="#E31524"/>
<path d="M157.292 16.1519C157.144 16.2909 156.995 16.4207 156.838 16.5598L156.865 16.6062C157.014 16.4578 157.171 16.3187 157.32 16.1704L157.292 16.1519Z" fill="#E31524"/>
<path d="M5.4443 42.614C5.43503 42.3729 5.42576 42.1411 5.40722 41.9H5.38867C5.40722 42.1411 5.42576 42.3729 5.4443 42.614Z" fill="#E31524"/>
<path d="M158.191 15.0299C158.117 15.1783 158.052 15.3173 157.978 15.4657L157.987 15.5028C158.061 15.3544 158.135 15.2061 158.21 15.067L158.182 15.0392L158.191 15.0299Z" fill="#E31524"/>
<path d="M109.244 10.8019C109.086 10.8761 108.938 10.9502 108.781 11.0337L108.818 11.0615C108.818 10.978 108.818 10.8946 108.818 10.8111L108.781 10.8389C108.938 10.8389 109.105 10.8389 109.263 10.8389L109.244 10.8111V10.8019Z" fill="#E31524"/>
<path d="M101.901 14.8074C101.743 14.8815 101.585 14.9557 101.428 15.0299L101.456 15.0577C101.604 14.9836 101.762 14.9094 101.91 14.8352L101.901 14.8074Z" fill="#E31524"/>
<path d="M23.7746 25.053C23.6263 25.1272 23.4872 25.192 23.3389 25.2662L23.3574 25.294C23.3574 25.2106 23.3574 25.1271 23.3574 25.0344L23.3296 25.0622C23.4872 25.0622 23.6541 25.0622 23.8117 25.0715L23.7746 25.053Z" fill="#E31524"/>
<path d="M19.3245 27.9551C19.3245 28.02 19.3337 28.0942 19.343 28.1591L19.3616 28.1961C19.3616 28.1127 19.3616 28.0292 19.3616 27.9365L19.3337 27.9551H19.3245Z" fill="#E31524"/>
<path d="M18.6475 28.8451C18.5084 28.91 18.3693 28.9842 18.2395 29.0491L18.2488 29.0769C18.2488 28.9934 18.2488 28.91 18.2488 28.8173L18.2117 28.8544C18.3693 28.8544 18.5269 28.8544 18.6845 28.8544L18.6475 28.8451Z" fill="#E31524"/>
<path d="M159.303 13.5093C159.238 13.6391 159.174 13.7596 159.109 13.8894L159.127 13.908C159.192 13.7874 159.266 13.6576 159.331 13.5371L159.303 13.5093Z" fill="#E31524"/>
<path d="M160.453 12.2112C160.472 11.9886 160.49 11.7661 160.509 11.5436C160.472 11.7754 160.444 12.0072 160.407 12.239L160.444 12.2112H160.453Z" fill="#E31524"/>
<path d="M156.837 16.5597C156.763 16.7266 156.698 16.8842 156.624 17.0511L156.652 17.0604C156.717 16.912 156.791 16.7544 156.856 16.606L156.828 16.5597H156.837Z" fill="#E31524"/>
<path d="M9.85765 36.5038C9.84838 36.5501 9.83911 36.6058 9.82983 36.6521C9.84838 36.6243 9.86692 36.6058 9.86692 36.578C9.86692 36.5501 9.83911 36.5223 9.82983 36.4945H9.85765V36.5038Z" fill="#E31524"/>
<path d="M95.8834 19.0261C95.8 19.1096 95.7258 19.193 95.6423 19.2765L95.6701 19.295C95.7443 19.2208 95.8185 19.1374 95.8927 19.0632L95.8741 19.0261H95.8834Z" fill="#E31524"/>
<path d="M154.408 19.4805C154.334 19.5546 154.259 19.6288 154.185 19.703L154.204 19.7401L154.426 19.5176L154.408 19.4897V19.4805Z" fill="#E31524"/>
<path d="M154.186 19.703C154.102 19.7772 154.028 19.8606 153.945 19.9348L153.982 19.9533C154.056 19.8792 154.13 19.805 154.204 19.7308L154.186 19.6937V19.703Z" fill="#E31524"/>
<path d="M157.505 15.9385C157.431 16.0127 157.356 16.0868 157.292 16.161L157.319 16.1796C157.393 16.1054 157.468 16.0312 157.542 15.957H157.505V15.9385Z" fill="#E31524"/>
<path d="M157.709 15.6975C157.644 15.781 157.57 15.8551 157.505 15.9386L157.542 15.9478C157.607 15.8644 157.681 15.7902 157.746 15.7068H157.709V15.6975Z" fill="#E31524"/>
<path d="M157.978 15.4657C157.885 15.5399 157.801 15.6233 157.709 15.6975H157.746C157.829 15.6326 157.903 15.5584 157.987 15.4935V15.4564L157.978 15.4657Z" fill="#E31524"/>
<path d="M24.0162 24.8119C23.9328 24.8953 23.8586 24.9695 23.7751 25.053L23.8122 25.0715C23.8122 24.9881 23.8122 24.9046 23.8122 24.8119L23.7659 24.8397C23.8586 24.8397 23.9513 24.8397 24.044 24.8397L24.0162 24.8119Z" fill="#E31524"/>
<path d="M158.821 14.1769C158.729 14.2325 158.627 14.2881 158.525 14.3438C158.525 14.3438 158.552 14.3438 158.543 14.3438C158.636 14.2881 158.738 14.2418 158.831 14.1954L158.812 14.1769H158.821Z" fill="#E31524"/>
<path d="M23.339 25.2661C23.2833 25.3774 23.237 25.4886 23.1813 25.5999L23.2184 25.5721C23.1906 25.4701 23.1535 25.3681 23.1257 25.2568L23.0979 25.2847C23.1813 25.2847 23.2741 25.2847 23.3575 25.2847L23.339 25.2568V25.2661Z" fill="#E31524"/>
<path d="M23.1907 25.5999C23.1907 25.5999 23.1907 25.5536 23.1814 25.535C23.1999 25.5443 23.2092 25.5629 23.2278 25.5721L23.1907 25.5999Z" fill="#E31524"/>
<path d="M159.109 13.8894C159.016 13.9821 158.923 14.0841 158.821 14.1768L158.84 14.1954C158.933 14.1026 159.025 14.0007 159.127 13.9079L159.109 13.8894Z" fill="#E31524"/>
<path d="M22.56 26.0729C22.56 26.0729 22.5508 26.0172 22.5415 25.9894C22.5508 26.0079 22.5693 26.0265 22.5786 26.0358L22.56 26.0636V26.0729Z" fill="#E31524"/>
<path d="M85.8693 27.9458C85.7951 28.02 85.7209 28.0941 85.6467 28.1683L85.6653 28.1869C85.7394 28.1127 85.8136 28.0385 85.8878 27.9643L85.8693 27.9458Z" fill="#E31524"/>
<path d="M19.3431 28.1591C19.2689 28.2332 19.1948 28.3074 19.1113 28.3816L19.1299 28.4187C19.1299 28.3352 19.1299 28.2425 19.1299 28.1591L19.0928 28.1961C19.1762 28.1961 19.2689 28.1961 19.3524 28.1961L19.3338 28.1591H19.3431Z" fill="#E31524"/>
<path d="M85.6471 28.1683C85.5729 28.2425 85.4987 28.3167 85.4246 28.3909L85.4431 28.4187C85.5173 28.3445 85.5915 28.2703 85.6656 28.1961L85.6471 28.1776V28.1683Z" fill="#E31524"/>
<path d="M19.1109 28.3816C19.0368 28.4558 18.9719 28.5207 18.8977 28.5948L18.907 28.6319C18.907 28.5485 18.907 28.465 18.907 28.3816L18.8699 28.4187C18.9533 28.4187 19.0368 28.4187 19.1295 28.4187L19.1109 28.3816Z" fill="#E31524"/>
<path d="M85.4247 28.3816C85.3505 28.4558 85.2763 28.5299 85.1929 28.6134L85.2207 28.6319C85.2949 28.5577 85.369 28.4836 85.4432 28.4094L85.4247 28.3816Z" fill="#E31524"/>
<path d="M18.8978 28.5947C18.8144 28.6781 18.7309 28.7616 18.6382 28.8451L18.6753 28.8543C18.7494 28.7802 18.8329 28.6967 18.9071 28.6225L18.8978 28.5854V28.5947Z" fill="#E31524"/>
<path d="M18.0078 29.2345C18.0263 29.1696 18.0263 29.1047 18.0078 29.0398L17.98 29.0769C18.0634 29.0769 18.1469 29.0769 18.2396 29.0769L18.2303 29.0491C18.1561 29.1047 18.0727 29.1511 17.9985 29.2067V29.2345H18.0078Z" fill="#E31524"/>
<path d="M17.9986 29.2068C17.9152 29.3366 17.841 29.4664 17.7576 29.5962L17.7854 29.5684C17.8596 29.4571 17.9337 29.3459 18.0079 29.2346L17.9986 29.2068Z" fill="#E31524"/>
<path d="M17.7576 29.6054C17.7576 29.6054 17.7576 29.5591 17.7576 29.5405C17.7576 29.5498 17.7761 29.5591 17.7854 29.5776L17.7576 29.6147V29.6054Z" fill="#E31524"/>
<path d="M159.331 13.5278C159.387 13.435 159.433 13.3331 159.489 13.2403L159.461 13.2218C159.405 13.3145 159.35 13.4072 159.303 13.5L159.331 13.5278Z" fill="#E31524"/>
<path d="M16.7002 30.4307C16.728 30.2916 16.7465 30.1618 16.7744 30.0227L16.7929 30.032C16.7558 30.1711 16.7187 30.3101 16.6724 30.4585L16.7002 30.4307Z" fill="#E31524"/>
<path d="M16.6724 30.4676C16.6724 30.4676 16.6724 30.4305 16.6631 30.4213C16.6816 30.4213 16.6909 30.4306 16.7002 30.4398L16.6724 30.4676Z" fill="#E31524"/>
<path d="M159.489 13.2497C159.619 13.2219 159.748 13.2033 159.878 13.1755L159.897 13.1477C159.748 13.1755 159.609 13.2033 159.461 13.2311L159.479 13.2497H159.489Z" fill="#E31524"/>
<path d="M15.3928 31.3022C15.365 31.3949 15.3464 31.4784 15.3186 31.5711L15.3464 31.534C15.3464 31.4506 15.3464 31.3579 15.3464 31.2744L15.3928 31.3022Z" fill="#E31524"/>
<path d="M159.878 13.1755C159.878 13.1755 159.86 13.1291 159.851 13.1013C159.869 13.1199 159.878 13.1292 159.897 13.1477L159.878 13.1755Z" fill="#E31524"/>
<path d="M15.3187 31.5711C15.2816 31.5155 15.2538 31.4691 15.2167 31.4135C15.1889 31.4691 15.1518 31.5155 15.124 31.5711L15.0869 31.5247C15.1704 31.5247 15.2631 31.5247 15.3465 31.5247L15.3187 31.5618V31.5711Z" fill="#E31524"/>
<path d="M160.426 12.2391C160.426 12.2391 160.426 12.202 160.426 12.1835C160.435 12.1835 160.444 12.1927 160.453 12.202L160.416 12.2298L160.426 12.2391Z" fill="#E31524"/>
<path d="M13.1584 33.2958C13.1306 33.3514 13.0842 33.3978 13.0657 33.4534C13.0657 33.4719 13.0935 33.5183 13.112 33.5461C13.112 33.4627 13.112 33.3699 13.112 33.2865L13.1491 33.305L13.1584 33.2958Z" fill="#E31524"/>
<path d="M13.1214 33.5367C13.038 33.5367 12.9638 33.5367 12.8804 33.5553L12.8618 33.5275C12.9453 33.5275 13.038 33.5275 13.1214 33.5275V33.5367Z" fill="#E31524"/>
<path d="M12.2775 34.2043C12.2775 34.2043 12.1848 34.2692 12.1477 34.3063C12.1477 34.3063 12.1848 34.3619 12.2033 34.3898L12.2312 34.4269C12.2312 34.3434 12.2312 34.2507 12.2312 34.1672L12.2775 34.2043Z" fill="#E31524"/>
<path d="M12.2035 34.3898C12.1293 34.4639 12.0644 34.5381 11.9902 34.6123L12.0088 34.6494C12.0088 34.566 12.0088 34.4732 12.0088 34.3898L11.9717 34.4269C12.0551 34.4269 12.1386 34.4269 12.2313 34.4269L12.2035 34.3898Z" fill="#E31524"/>
<path d="M11.9996 34.6123L11.7771 34.8348L11.7956 34.8719C11.7956 34.7885 11.7956 34.6958 11.7956 34.6123L11.7585 34.6494C11.842 34.6494 11.9347 34.6494 12.0182 34.6494L11.9996 34.6123Z" fill="#E31524"/>
<path d="M11.7767 34.8348C11.6933 34.9368 11.6191 35.0388 11.5356 35.1316L11.5635 35.0852C11.5635 35.0017 11.5635 34.909 11.5635 34.8256L11.5264 34.8627C11.6098 34.8627 11.7025 34.8627 11.786 34.8627L11.7674 34.8256L11.7767 34.8348Z" fill="#E31524"/>
<path d="M78.7484 34.8441C78.6742 34.9183 78.6001 34.9925 78.5352 35.0759L78.5537 35.0944C78.6279 35.0203 78.702 34.9461 78.7762 34.8719L78.7577 34.8534L78.7484 34.8441Z" fill="#E31524"/>
<path d="M11.536 35.1315C11.4896 35.0851 11.4433 35.0295 11.3969 34.9832C11.3784 35.0295 11.3598 35.0851 11.3413 35.1315L11.3042 35.0851C11.3876 35.0851 11.4804 35.0851 11.5638 35.0851L11.536 35.1315Z" fill="#E31524"/>
<path d="M78.5355 35.0758C78.4613 35.15 78.3872 35.2241 78.313 35.2983L78.3315 35.3169C78.4057 35.2427 78.4799 35.1685 78.5541 35.0943L78.5355 35.0758Z" fill="#E31524"/>
<path d="M10.9426 35.5303C10.9426 35.5303 10.8591 35.6044 10.822 35.6415C10.822 35.6415 10.8591 35.6879 10.8869 35.7157L10.9055 35.7528C10.9055 35.6693 10.9055 35.5766 10.9055 35.4932L10.9426 35.5303Z" fill="#E31524"/>
<path d="M10.8868 35.7249C10.8126 35.8176 10.7385 35.9103 10.6643 36.0123L10.6828 35.9845C10.6828 35.901 10.6828 35.8083 10.6828 35.7249L10.6458 35.7619C10.7292 35.7619 10.8219 35.7619 10.9054 35.7619L10.8868 35.7249Z" fill="#E31524"/>
<path d="M10.6546 36.0032C10.5805 36.0032 10.5156 36.0031 10.4414 36.0124L10.4136 35.9753C10.497 35.9753 10.5897 35.9753 10.6732 35.9753L10.6546 36.0032Z" fill="#E31524"/>
<path d="M76.514 36.8375C76.4399 36.9117 76.375 36.9952 76.3008 37.0693L76.3193 37.0879C76.3935 37.0137 76.4677 36.9395 76.5419 36.8653L76.514 36.8282V36.8375Z" fill="#E31524"/>
<path d="M9.28271 37.4496L9.34762 37.431L9.30126 37.4218L9.28271 37.4496Z" fill="#E31524"/>
<path d="M9.30148 37.4218C9.28293 37.5608 9.26439 37.6906 9.23657 37.8297V37.8112C9.63527 37.7277 9.43128 37.5886 9.27366 37.4496L9.2922 37.4218H9.30148Z" fill="#E31524"/>
<path d="M8.80981 37.8204C8.95817 37.8204 9.09725 37.8204 9.2456 37.8204V37.839C9.10652 37.839 8.96744 37.8297 8.82836 37.8204H8.81909H8.80981Z" fill="#E31524"/>
<path d="M8.81933 37.8112C8.81933 37.9595 8.81005 38.1172 8.80078 38.2655V38.2469C8.80078 38.0986 8.80078 37.9595 8.80078 37.8112H8.81005H8.81933Z" fill="#E31524"/>
<path d="M8.38325 38.2562C8.35544 38.4046 8.33689 38.5437 8.2998 38.692L8.32762 38.7013C8.34617 38.5529 8.35544 38.4046 8.36471 38.2655H8.38325V38.2562Z" fill="#E31524"/>
<path d="M7.96631 38.6456C8.08684 38.6642 8.19811 38.6827 8.31864 38.7012C8.31864 38.7012 8.29083 38.692 8.3001 38.692C8.19811 38.7661 8.08684 38.8403 7.98485 38.9052L8.01267 38.8681C8.01267 38.7847 8.01267 38.7012 8.01267 38.6085L7.96631 38.6363V38.6456Z" fill="#E31524"/>
<path d="M7.98473 38.9052C7.94764 38.8589 7.91055 38.8125 7.87347 38.7661C7.84565 38.8125 7.81783 38.8681 7.79002 38.9145L7.75293 38.8681C7.83638 38.8681 7.91983 38.8681 8.01255 38.8681L7.98473 38.9052Z" fill="#E31524"/>
<path d="M7.50269 39.4524H7.55832L7.52123 39.4246L7.50269 39.4524Z" fill="#E31524"/>
<path d="M7.47485 39.8138C7.84573 39.7211 7.66029 39.5821 7.51194 39.443L7.53048 39.4152C7.51194 39.5542 7.4934 39.6933 7.47485 39.8324V39.8138Z" fill="#E31524"/>
<path d="M7.02954 39.8047C7.17789 39.8047 7.32624 39.8047 7.4746 39.8139V39.8325C7.32624 39.8232 7.18717 39.814 7.03881 39.8047H7.02954Z" fill="#E31524"/>
<path d="M7.02977 39.8047C7.02977 39.9623 7.01123 40.1199 7.00195 40.2683L7.01123 40.259C7.01123 40.1107 7.01123 39.9623 7.01123 39.8139L7.02977 39.8047Z" fill="#E31524"/>
<path d="M6.51025 40.2776C6.67715 40.2776 6.85332 40.259 7.02021 40.2498C7.02021 40.2498 7.01094 40.259 7.02021 40.259C6.86259 40.259 6.69569 40.2776 6.53807 40.2869L6.51953 40.2776H6.51025Z" fill="#E31524"/>
<path d="M6.5937 40.9265C6.5937 40.9265 6.60297 40.8801 6.61225 40.8523C6.57516 40.8708 6.54734 40.8894 6.51025 40.908C6.53807 40.908 6.55661 40.9265 6.58443 40.9358H6.5937V40.9265Z" fill="#E31524"/>
<path d="M6.58447 40.9265C6.45466 40.9636 6.31558 41.0007 6.18578 41.0285L6.15796 41.0563C6.30631 41.01 6.44539 40.9636 6.59374 40.9172L6.58447 40.9265Z" fill="#E31524"/>
<path d="M6.18578 41.0378C6.18578 41.0378 6.16723 41.0564 6.15796 41.0657L6.18578 41.0378Z" fill="#E31524"/>
<path d="M5.91695 41.8259C5.91695 41.8259 5.93549 41.7795 5.94477 41.761C5.90768 41.7703 5.87986 41.7888 5.84277 41.7981C5.86132 41.8074 5.88913 41.8166 5.8984 41.8259H5.90768H5.91695Z" fill="#E31524"/>
<path d="M5.40698 41.8908C5.57388 41.8723 5.74077 41.8445 5.91694 41.8259C5.75005 41.8537 5.58315 41.8723 5.40698 41.8908Z" fill="#E31524"/>
</svg>
