<svg width="166" height="212" viewBox="0 0 166 212" fill="none" xmlns="http://www.w3.org/2000/svg">
<path d="M16.1051 67.3054C15.9722 67.2873 15.8056 67.3189 15.7026 67.2399C12.4442 64.9682 9.11787 62.7576 6.33681 59.8796C5.88603 59.4124 5.57454 58.7965 5.27079 58.2032C5.12471 57.9235 5.02296 57.4767 5.14649 57.2445C5.72676 56.1596 5.49876 55.0082 5.58189 53.8775C5.63722 53.111 5.85665 52.4913 6.51339 52.0392C6.75123 51.882 6.97745 51.6908 7.1389 51.4584C7.62326 50.761 8.31511 50.4489 9.11564 50.4926C10.4548 50.5553 11.8201 50.5458 13.1116 50.8402C17.5065 51.8373 21.9089 52.8191 26.2409 54.0404C37.1051 57.101 47.5751 61.2717 57.7877 66.0624C69.45 71.537 81.0228 77.2322 92.6367 82.8247C96.7769 84.821 100.932 86.7869 105.08 88.768C105.426 88.9286 105.776 89.1006 106.141 89.2042C106.985 89.4487 107.854 89.6588 108.706 89.888C108.781 89.8116 108.864 89.72 108.939 89.6436C108.185 88.1015 107.548 86.4942 106.662 85.0478C105.143 82.5629 103.465 80.1702 101.844 77.7581C101.694 77.5429 101.439 77.3892 101.237 77.2048L101.286 77.2386C100.473 75.8941 99.7199 74.5037 98.3408 73.6183C98.2518 73.3573 98.1854 73.0885 98.1077 72.8235C97.7106 72.4395 97.3096 72.0441 96.9125 71.66L96.9659 71.7051C96.5584 70.9191 96.1282 70.1409 95.2196 69.8173C95.112 69.6132 95.0043 69.4092 94.8854 69.209C94.3226 68.4506 93.7559 67.6809 93.1931 66.9226C93.1328 66.9685 93.0724 67.0144 93.012 67.0604C93.212 67.461 93.4234 67.8577 93.6234 68.2583L93.6458 68.2126C92.488 66.973 91.3264 65.722 90.1686 64.4823C86.745 60.8351 83.3176 57.1764 79.9053 53.5253C79.6225 53.2163 79.4189 52.8423 79.1738 52.4951L79.1475 52.5294C79.5933 52.8335 80.0467 53.1223 80.4925 53.4264C80.5227 53.4035 80.549 53.3691 80.5905 53.3423C79.8533 52.5927 79.1009 51.8357 78.3637 51.0861C78.1044 50.8831 77.8376 50.6954 77.5783 50.4924C77.3886 49.9362 77.0521 49.5441 76.4296 49.4651C74.0617 47.0923 71.6937 44.7195 69.3144 42.3507C68.0927 41.1835 66.867 40.005 65.6453 38.8378L65.71 38.8791C64.4725 37.6286 63.2688 36.3286 61.9937 35.1163C57.2668 30.5832 52.5099 26.0729 47.7642 21.5588C47.6344 21.4383 47.4897 21.3484 47.1504 21.0966L47.4369 21.9366L47.4632 21.9022C46.9786 21.4846 46.4224 21.1169 46.0245 20.6191C44.4481 18.6352 42.8604 16.6552 41.4047 14.5795C39.9989 12.5755 39.4371 10.3342 40.095 7.87964C40.1579 7.65544 40.1865 7.40496 40.1924 7.1622C40.1876 3.21041 43.658 0.531379 47.312 0.247961C50.3595 0.00671039 53.3432 0.395481 56.3201 0.913238C66.0407 2.58993 75.4503 5.36104 84.6754 8.854C96.7106 13.4158 107.881 19.603 118.625 26.62C123.563 29.8395 128.403 33.219 133.179 36.671C137.025 39.4392 140.777 42.3408 144.446 45.3341C150.164 49.9855 155.723 54.8428 160.466 60.5364C161.965 62.3312 163.257 64.2981 164.545 66.2536C165.227 67.288 165.195 67.603 165.018 68.9051C163.979 67.7898 163.579 66.3931 162.582 65.4026C163.051 66.8519 163.656 68.2547 163.837 69.7515C163.716 69.8054 163.611 69.8668 163.49 69.9208C163.076 69.3396 162.655 68.7737 162.126 68.0416C162.19 68.9704 162.892 69.6178 162.408 70.429C161.483 70.4658 161.296 69.7692 160.94 69.2066C161.006 69.5134 161.062 69.824 161.132 70.142C161.083 70.1841 161.038 70.2375 160.989 70.2796C160.767 70.0384 160.478 69.8205 160.332 69.5408C159.463 67.9237 158.293 66.5741 156.863 65.4274C156.253 64.9386 155.684 64.3472 155.224 63.7057C154.144 62.1734 152.729 61.0342 151.283 59.8421C150.207 58.9545 148.963 58.2768 147.981 57.2559C147.022 56.2651 145.916 55.4006 144.833 54.5283C142.098 52.3439 139.349 50.19 136.607 48.0208C136.138 47.6487 135.643 47.3866 135.524 46.6289C135.46 46.1819 134.805 45.7844 134.336 45.4502C131.684 43.58 129.023 41.7251 126.367 39.8815C125.933 39.6115 125.499 39.3415 125.076 39.0676C123.243 37.8933 121.411 36.7191 119.567 35.5487C119.018 35.1656 118.466 34.7713 117.917 34.3883L117.978 34.4182C117.657 34.1474 117.359 33.8309 116.994 33.6135C114.503 32.0684 111.989 30.531 109.483 29.0163C109.243 28.8701 108.958 28.8152 108.699 28.7259L108.738 28.7636C107.957 28.295 107.169 27.8416 106.388 27.373L106.453 27.4142C105.417 26.7919 104.377 26.1583 103.341 25.5359L102.742 25.487C101.878 24.5904 99.2666 23.175 98.0324 22.9372C97.214 22.5067 96.3804 22.0688 95.562 21.6384C95.28 21.4431 94.9905 21.2631 94.7085 21.0679C94.2371 20.9119 93.7696 20.7673 93.2869 20.6152C93.1195 20.5329 92.952 20.4506 92.7846 20.3683C92.373 20.0906 91.9729 19.8089 91.5613 19.5311C91.5157 19.5087 91.47 19.4863 91.4243 19.4639C90.7703 19.2181 90.1163 18.9724 89.4661 18.738C89.147 18.6568 88.8278 18.5755 88.5087 18.4943C88.2685 18.3102 88.0208 18.1413 87.5785 17.8106C87.7484 18.2342 87.8178 18.4006 87.8833 18.5556L87.8944 18.5138C87.4804 18.4143 87.0477 18.3718 86.6635 18.2114C77.5803 14.3913 68.2114 11.4796 58.5978 9.37359C55.844 8.76706 53.0567 8.24804 50.2663 7.83138C48.8654 7.62499 47.406 7.73001 45.6422 7.68545C45.973 8.3582 46.1315 8.78562 46.3578 9.15192C48.0222 11.8026 50.0791 14.1548 52.2865 16.3543C57.5299 21.5475 62.7996 26.7065 68.1297 31.8195C78.618 41.8761 88.9216 52.0971 98.3513 63.1737C103.043 68.6818 107.55 74.3542 111.356 80.5322C112.767 82.8131 114.107 85.1437 114.846 87.7554C115.076 88.5768 115.241 89.4327 115.319 90.2931C115.426 91.4605 114.977 92.3738 114.08 93.1992C112.984 94.2195 111.879 95.1791 110.499 95.7766C108.786 96.5129 107.066 96.7828 105.204 96.189C102.448 95.317 99.7186 94.4107 97.0671 93.2498C96.5041 93.011 95.8927 92.8901 95.3222 92.6665C94.7975 92.4654 94.2348 92.2645 93.8227 91.9109C93.3572 91.5121 92.9055 91.4508 92.3676 91.5456C91.98 90.8922 91.4658 90.5734 90.7058 90.9087C89.9979 90.542 89.3188 89.9626 88.5822 89.8464C87.7393 89.7158 87.3473 88.9752 86.6861 88.7826C85.9413 88.5679 85.5067 87.7024 84.6961 87.8522C83.8628 88.0097 83.3769 87.4025 82.7118 87.1985L83.0126 86.8172C82.9021 86.7535 82.7192 86.6258 82.6777 86.6527C82.5722 86.752 82.5126 86.9117 82.434 87.0526C81.4517 86.5133 80.282 86.2787 79.6412 85.2175C79.5607 85.0929 79.2601 84.9547 79.1505 85.0048C78.251 85.451 77.6129 84.769 76.9317 84.4438C68.447 80.5209 59.9997 76.5219 51.4812 72.6485C47.3835 70.7771 43.1851 69.1301 39.0277 67.3805C38.6283 67.2126 38.2364 67.0295 37.8782 66.7968C37.7983 66.7481 37.8722 66.4821 37.8787 66.3152C38.164 66.4459 38.4342 66.5692 38.7195 66.6999C38.7456 66.6277 38.7677 66.5441 38.7938 66.4719C38.4901 66.4361 38.1712 66.3928 37.8676 66.357C37.1644 65.5958 36.1928 65.4964 35.2659 65.2677L35.3077 65.2788C34.7868 65.089 34.2507 64.8918 33.7184 64.7059C33.3951 64.5754 33.0793 64.4297 32.756 64.2992C32.7339 64.3828 32.7117 64.4664 32.7009 64.5461C33.0425 64.5817 33.3879 64.6285 33.7409 64.6602C33.833 64.8188 33.9176 64.9927 34.1326 65.3629C29.5596 63.8437 25.1576 62.3801 20.7556 60.9166C20.9508 61.7117 21.5558 61.9995 22.0515 62.3753C26.928 66.0844 31.876 69.7059 36.6811 73.5028C42.821 78.3523 48.6598 83.5452 54.1674 89.1045C60.9278 95.9218 67.3263 103.053 72.718 111.021C74.8103 114.109 76.6157 117.395 78.4815 120.636C79.0728 121.664 79.4677 122.822 79.8435 123.961C80.5484 126.064 80.725 127.993 78.6506 129.639C76.6554 131.219 74.6116 132.36 72.0121 132.131C70.4828 131.994 68.998 131.728 67.5638 131.089C66.411 130.57 65.0979 130.435 63.9302 129.946C60.7198 128.596 57.5093 127.207 54.3549 125.724C48.8452 123.13 43.3654 120.476 37.9006 117.791C33.9428 115.846 30.0487 113.792 26.1059 111.817C22.6388 110.085 19.1456 108.425 15.6785 106.694C15.161 106.439 14.4136 106.403 14.2981 105.619L14.2757 105.664L18.1179 107.344L18.2489 107.097C17.6893 106.793 17.1485 106.471 16.5739 106.198C12.822 104.412 9.1 102.564 5.31097 100.892C2.40069 99.6034 -0.614281 98.5285 -3.59574 97.366C-3.75545 97.3064 -3.9675 97.3534 -4.15711 97.3548L-4.09623 97.3846C-6.21601 96.3337 -8.39509 95.4805 -10.7268 95.0341L-10.6659 95.064C-11.1486 94.9119 -11.6239 94.7445 -12.1066 94.5924L-12.0343 94.6185C-12.517 94.4663 -12.9923 94.299 -13.475 94.1469L-13.4066 94.1616C-13.7717 94.02 -14.1368 93.8784 -14.5019 93.7369L-14.426 93.7363C-15.6035 93.4791 -16.7848 93.2105 -17.9737 92.9571C-18.5364 92.7562 -19.0916 92.5401 -19.6543 92.3393C-20.0988 92.2248 -20.5433 92.1103 -20.9992 91.9997C-21.033 92.0493 -21.0629 92.1102 -21.0967 92.1597C-20.9478 92.299 -20.795 92.4496 -20.6575 92.5928C-22.2067 92.3229 -23.7446 92.0493 -25.2977 91.7681C-25.3617 91.8406 -25.4218 91.9244 -25.4858 91.9969C-25.2368 92.3555 -25.0141 92.7484 -24.7235 93.0801C-21.3298 96.7882 -17.955 100.515 -14.501 104.178C-8.81553 110.221 -3.17156 116.292 1.93327 122.825C4.86465 126.589 7.649 130.48 10.5012 134.309C10.8227 134.732 11.1254 135.173 10.826 135.744L10.8523 135.71C10.5365 135.564 10.1113 135.507 9.92759 135.265C8.0676 132.858 6.14339 130.486 4.42684 127.98C1.80221 124.149 -1.4482 120.861 -4.42336 117.339C-7.57066 113.611 -11.0195 110.149 -14.3326 106.566C-16.3657 104.358 -18.3799 102.13 -20.4392 99.9563C-21.3867 98.9617 -22.417 98.0587 -23.6098 97.2365C-23.4103 97.5612 -23.2712 97.932 -23.0152 98.1994C-20.6225 100.868 -18.2524 103.544 -15.8145 106.159C-13.3346 108.823 -10.7115 111.349 -8.30324 114.063C-4.91626 117.9 -1.56309 121.787 1.59768 125.815C4.53264 129.553 7.2187 133.49 9.94989 137.374C11.4017 139.438 12.7555 141.586 14.1015 143.712C14.8684 144.92 15.5523 146.182 16.2816 147.429C16.558 147.905 16.8684 148.369 17.1561 148.841C17.2431 148.799 17.3261 148.745 17.413 148.703C16.5926 146.892 15.7608 145.085 14.9592 143.255C14.778 142.835 14.6724 142.377 14.6047 141.919C14.5414 141.547 14.5734 141.232 14.0677 141.05C13.6799 140.916 13.4603 140.421 14.205 140.078C14.6463 140.815 15.0912 141.525 15.5173 142.254C16.8837 144.588 18.4467 146.83 19.216 149.456C19.5694 150.641 19.8511 151.875 19.89 153.104C19.9188 153.968 19.6259 154.93 19.1988 155.684C17.7602 158.227 15.795 160.304 13.2492 161.793C11.897 162.584 10.44 163.03 8.8653 162.909C7.53718 162.804 6.20159 162.715 4.88403 162.493C1.47417 161.895 -1.93772 161.55 -5.39077 161.829C-7.19122 161.974 -7.48498 162.264 -7.87474 164.019C-8.3047 165.99 -7.98394 167.934 -7.62913 169.866C-7.30221 171.604 -6.94124 173.331 -6.54234 175.058C-5.45125 179.779 -6.57015 182.48 -10.9617 185.764C-12.6066 186.997 -14.5791 187.492 -16.5518 187.95C-17.7142 188.22 -18.8841 188.505 -20.0388 188.797C-21.0988 189.07 -21.9596 189.63 -22.6209 190.514C-23.8194 192.127 -25.0485 193.725 -26.2775 195.322C-27.2171 196.542 -28.2674 197.661 -29.6655 198.391C-30.5498 198.845 -30.702 198.77 -31.4911 197.646C-29.9089 195.04 -28.2818 192.344 -26.6281 189.651C-26.1556 188.882 -25.6108 188.138 -25.0775 187.399C-23.8756 185.722 -22.3336 184.41 -20.4236 183.657C-18.4682 182.889 -16.4512 182.264 -14.4261 181.7C-12.3745 181.14 -12.3922 181.311 -12.6542 179.094C-12.8964 177.01 -13.3469 174.946 -13.6723 172.877C-13.7362 172.43 -13.6712 171.952 -13.6517 171.489C-13.6447 171.398 -13.581 171.288 -13.6156 171.223C-14.3413 169.95 -13.9035 168.559 -13.8937 167.251C-13.882 166.208 -13.4725 165.105 -13.0014 164.146C-12.2684 162.654 -11.3758 161.222 -10.4755 159.812C-9.76259 158.708 -8.71378 157.919 -7.56897 157.3C-5.24915 156.04 -2.75071 155.378 -0.117447 155.557C2.93324 155.771 5.97751 156.152 9.01764 156.483C10.0158 156.586 11.0109 156.791 12.0088 156.857C13.7579 156.97 14.3181 156.272 13.8627 154.602C13.5826 153.595 13.2079 152.608 12.871 151.621C12.8013 151.416 12.7355 151.223 12.8208 150.954C12.9393 151.078 13.0464 151.206 13.3253 151.504C11.6962 147.396 9.37731 143.905 7.33393 140.217C7.52074 140.356 7.75656 140.453 7.86779 140.631C8.80657 142.008 9.70382 143.413 10.6426 144.791C10.8764 145.142 11.2309 145.401 11.5251 145.706C11.826 146.44 12.1344 147.158 12.4315 147.881C12.5412 147.83 12.6356 147.773 12.7452 147.723C12.331 147.066 11.9243 146.394 11.5101 145.737C10.5635 143.779 9.53767 141.886 8.16798 140.174C7.5443 139.385 7.0261 138.498 7.65591 137.446L7.63347 137.492C7.96555 137.797 8.37323 138.063 8.63746 138.429C9.26528 139.267 9.83276 140.151 10.4304 141.011C10.5759 141.215 10.7971 141.38 11.2106 141.404C10.8377 140.682 10.4836 139.941 10.0766 139.231C9.68878 138.54 9.27821 137.856 8.81474 137.203C8.23647 136.399 7.58258 135.634 6.98547 134.85C5.7453 133.22 4.53532 131.567 3.28769 129.953C2.38455 128.791 1.45508 127.663 0.514271 126.54C0.346039 126.344 0.0496038 126.255 -0.441639 125.966C-0.104106 126.51 0.053581 126.824 0.264137 127.107C1.33245 128.567 2.43842 129.989 3.4879 131.468C3.75989 131.857 3.8281 132.391 4.01395 132.936C5.46289 133.506 5.83139 134.141 5.53886 135.698C5.4096 135.653 5.25405 135.643 5.18515 135.552C4.27866 134.455 3.36079 133.362 2.49583 132.237C2.31985 132.019 2.30224 131.67 2.22815 131.378C2.18943 131.265 2.19559 131.06 2.14244 131.053C0.610981 130.612 0.344963 128.904 -0.806046 128.093C-1.15669 127.845 -1.51869 127.601 -1.88068 127.357C-2.16148 126.794 -2.40073 126.204 -2.74187 125.686C-2.84535 125.532 -3.22818 125.561 -3.47509 125.506C-3.42698 124.792 -3.74463 124.381 -4.45075 124.28C-4.54966 123.693 -4.81081 123.224 -5.42278 123.028C-6.21243 121.827 -6.92677 120.55 -8.23668 119.793C-7.52623 121.059 -6.59703 122.148 -5.40783 122.997C-5.08632 123.42 -4.75343 123.838 -4.43579 124.249C-4.10678 124.657 -3.78913 125.068 -3.46012 125.475C-2.93243 126.094 -2.40476 126.712 -1.86572 127.326C-1.24485 128.255 -0.620104 129.195 0.000770569 130.123C-0.0784241 130.188 -0.153743 130.265 -0.232937 130.33C-0.473411 130.108 -0.766772 129.916 -0.969585 129.656C-4.922 124.681 -9.11948 119.917 -13.4941 115.302C-13.7731 115.004 -14.1273 114.783 -14.4553 114.527L-14.3944 114.557C-14.9389 113.704 -15.4269 112.793 -16.5061 112.49L-16.7592 112.082C-17.2622 111.202 -17.7727 110.337 -18.758 109.9L-18.7046 109.945C-19.5184 109.082 -20.3322 108.219 -21.1422 107.368L-21.0813 107.398C-21.9682 106.395 -22.8135 105.366 -23.7455 104.417C-24.2879 103.867 -24.6456 103.152 -25.6553 103.015C-26.2513 102.94 -26.7432 102.018 -27.339 101.423L-26.6239 101.179C-27.2 100.679 -27.7004 100.178 -28.2647 99.7493C-30.5484 98.0321 -31.9453 95.6829 -32.9382 93.0692C-33.0582 92.7173 -33.0686 92.3154 -33.0447 91.9397C-32.9624 90.6952 -32.88 89.4507 -32.7293 88.2208C-32.4929 86.2395 -30.5462 84.2197 -28.4626 83.9017C-27.3791 83.7349 -26.2383 83.6245 -25.1751 83.8067C-21.6819 84.3891 -18.1774 84.9676 -14.7355 85.8083C-7.93138 87.4788 -1.3872 89.9476 5.08633 92.6178C18.391 98.1151 31.1275 104.807 43.9424 111.32C52.6202 115.735 61.3689 119.986 70.114 124.264C71.2252 124.81 72.3602 125.5 73.9256 125.371C73.0645 123.701 72.3364 122.086 71.4536 120.576C68.8015 116.07 65.7191 111.862 62.3953 107.839C62.009 107.375 61.4757 107.038 61.0102 106.639L61.0136 106.574C60.5346 105.876 60.1047 105.136 59.5767 104.48C59.0067 103.774 58.3614 103.145 57.6062 102.529C57.6988 102.763 57.7954 103.009 57.8994 103.24L57.7294 103.336C57.2593 102.812 56.8004 102.284 56.3115 101.779C54.1032 99.4661 51.8875 97.1682 49.668 94.8588C49.4081 94.58 49.1671 94.2821 48.93 93.9955C49.1271 93.979 49.3128 93.9663 49.5744 93.9531C49.184 93.44 49.1188 93.8804 48.9565 93.9991C47.8344 92.9754 46.7197 91.9364 45.5749 90.9204C42.5297 88.2338 39.477 85.5625 36.4357 82.8872C36.1266 82.6125 35.8701 82.2692 35.5872 81.9602L35.5609 81.9945L36.242 81.7622C35.6292 81.4517 35.1878 81.2348 34.7577 81.014C34.5592 80.841 34.3608 80.6679 34.1511 80.4987C33.6892 80.0734 33.2312 79.6594 32.7807 79.2302L32.8455 79.2715C32.2773 78.8317 31.7016 78.4072 31.1335 77.9674L31.1983 78.0087C30.4904 77.1224 29.6926 76.3808 28.5304 76.131C27.5084 75.3266 26.4863 74.5221 25.4643 73.7176C24.7137 72.6686 23.685 71.9931 22.5322 71.474L22.597 71.5153C22.2497 71.2029 21.9362 70.841 21.5512 70.5669C18.197 68.1631 14.8392 65.7859 11.4888 63.3934C10.6885 62.8301 9.89559 62.2516 9.1027 61.6731C9.24208 62.0817 9.47148 62.3456 9.75736 62.5522C11.37 63.7507 13.0014 64.9302 14.6065 66.1439C15.087 66.5123 15.5186 66.9606 15.9614 67.3671L15.9764 67.3366L16.1051 67.3054ZM65.2209 102.972C65.3182 103.332 65.4003 103.684 65.4976 104.044C65.5657 104.021 65.6452 103.993 65.7133 103.97C65.5517 103.645 65.3902 103.32 65.2247 102.984C64.8351 102.585 64.4303 102.178 64.0406 101.778C64.2536 102.403 64.4591 103.042 65.2247 102.984L65.2209 102.972ZM53.3379 25.7144C52.9865 25.3528 52.6464 24.9873 52.295 24.6257C52.216 24.7286 52.1485 24.8277 52.0657 24.9193C52.5035 25.1627 52.93 25.4101 53.3678 25.6535C53.6776 26.5616 54.1643 27.2825 55.212 27.4193C55.1814 27.924 55.377 28.2374 56.0942 28.2968C55.72 27.9429 55.4604 27.7021 55.1857 27.4537C54.5672 26.8664 53.9525 26.2904 53.3341 25.7031L53.3379 25.7144ZM72.8084 121.799C72.8807 120.748 72.3708 119.959 71.532 119.32L72.8159 121.783C73.4154 122.909 74.011 124.024 74.6219 125.146C74.3712 124.003 73.9051 122.97 73.3974 121.965C73.3322 121.848 73.0174 121.854 72.8198 121.795L72.8084 121.799ZM4.92984 94.6479C4.88936 94.2816 4.69617 94.1363 4.35033 94.212C4.29049 94.3338 4.23814 94.4403 4.17831 94.5621C4.44016 94.5868 4.6868 94.6041 4.94865 94.6288C5.60761 95.0376 6.27794 95.4425 7.19208 96.005C7.11639 95.4859 7.15579 95.1557 7.03374 95.058C6.4047 94.5883 5.71249 94.3049 4.9337 94.6592L4.92984 94.6479ZM2.52163 93.5687L3.28634 93.916C3.30851 93.8324 3.32681 93.7375 3.36034 93.65C3.07578 93.6331 2.78375 93.6313 2.4992 93.6143C1.85817 92.5152 0.633529 92.5655 -0.546326 91.9669C0.207142 92.8756 1.39062 93.4476 2.52163 93.5687ZM61.024 33.1282C61.6266 34.1518 62.5604 34.809 63.5243 35.4432C62.726 34.6258 62.2101 33.522 61.0091 33.1587C60.2555 31.6925 58.7565 31.0127 57.6 29.9626C58.7903 30.9631 59.5439 32.4294 61.024 33.1282ZM65.0164 30.7907C64.8308 31.3609 65.1396 31.5976 65.7026 31.8364C65.6416 31.249 65.4272 30.9547 64.9713 30.8441C64.8028 30.6102 64.6872 30.3455 64.4849 30.1611C62.7362 28.4894 60.9613 26.852 59.2126 25.1804C56.6316 22.7029 54.0505 20.2255 51.5146 17.6946C50.2123 16.4028 48.9815 15.0234 47.713 13.6821C47.6202 13.9672 47.6896 14.1336 47.8081 14.2579C49.4556 16.1161 51.0129 18.0812 52.7809 19.8096C56.3629 23.3268 60.0578 26.7294 63.7378 30.1625C64.0737 30.4787 64.3586 31.0911 65.0278 30.7868L65.0164 30.7907ZM32.3439 72.0806C32.3439 72.0806 32.4151 71.9549 32.4564 71.8901C32.1016 71.593 31.7656 71.2768 31.392 70.9987C29.8821 69.8412 28.3195 68.7523 26.8548 67.5413C23.3875 64.6946 19.6272 62.2519 15.8708 59.8206C15.5965 59.648 15.2547 59.5746 14.9353 59.4554C20.4608 63.7669 26.1059 67.8348 31.7433 71.88C31.911 72.0001 32.1424 72.0099 32.3439 72.0806ZM71.0595 111.397C73.6901 115.542 76.1923 119.757 77.9954 124.338C78.0225 124.417 78.1102 124.488 78.1902 124.537C78.2245 124.563 78.2774 124.533 78.3306 124.54C78.2651 122.231 73.7665 113.983 71.0595 111.397ZM113.215 88.2485C113.311 86.2264 109.74 79.3982 107.71 77.7209C109.54 81.2276 111.366 84.7229 113.215 88.2485ZM68.8197 108.359C68.9329 108.283 69.0423 108.195 69.1555 108.118C68.3177 107.073 67.4759 106.017 66.6192 104.992C66.5772 104.943 66.3618 105.054 66.2596 105.089C67.1589 106.239 67.9893 107.299 68.8235 108.371L68.8197 108.359ZM109.026 88.0046L109.279 87.8549L106.606 83.0268C106.519 83.0691 106.436 83.1228 106.349 83.1651C107.24 84.7745 108.131 86.3839 109.022 87.9933L109.026 88.0046ZM108.661 83.441C108.744 83.3873 108.831 83.345 108.914 83.2913C108.177 82.0601 107.433 80.8441 106.696 79.6129C106.601 79.6704 106.507 79.728 106.413 79.7855L108.672 83.4371L108.661 83.441ZM6.38808 98.1799C6.44818 98.0961 6.49304 98.0047 6.55313 97.9209C6.02853 97.2002 5.16429 97.2669 4.37819 97.1169C5.04437 97.4725 5.7219 97.8243 6.38808 98.1799ZM21.0848 66.7851C21.9121 67.39 22.724 67.9873 23.5512 68.5921C23.6113 68.5083 23.6639 68.4397 23.724 68.3558C23.0284 67.5794 22.2314 66.9516 21.0848 66.7851ZM58.8683 28.5543C58.917 28.4743 58.9658 28.3944 59.0145 28.3144C58.2854 27.6255 57.5448 26.9404 56.8156 26.2514C56.763 26.3201 56.6952 26.3812 56.6426 26.4498L58.8683 28.5543ZM21.6722 109.072C20.9235 108.313 20.2717 108.012 19.7165 108.167C20.4356 108.492 21.0558 108.788 21.6722 109.072ZM8.5753 101.286C8.52656 101.366 8.4778 101.446 8.42905 101.526L10.6239 102.462C10.6574 102.375 10.6909 102.288 10.7283 102.211C10.0131 101.898 9.29795 101.584 8.58664 101.282L8.5753 101.286ZM35.338 74.5058C34.8807 73.8339 34.313 73.4574 33.6348 73.3762C34.2559 73.7852 34.6978 74.0779 35.338 74.5058ZM5.94351 100.777C6.04074 100.579 6.13798 100.381 6.22385 100.187C5.58478 99.9111 4.93435 99.6388 4.29915 99.374C4.28059 99.431 4.25065 99.4919 4.22823 99.5376C4.79998 99.9507 5.37175 100.364 5.94351 100.777ZM109.319 84.3314L109.217 84.4042C109.532 84.8798 109.85 85.3669 110.164 85.8425C110.217 85.8118 110.277 85.7659 110.33 85.7352C109.993 85.2673 109.656 84.7993 109.323 84.3428L109.319 84.3314ZM66.5102 32.3466C66.4501 32.4304 66.4013 32.5104 66.3412 32.5943C66.6313 32.8502 66.9213 33.106 67.2226 33.358L67.3844 33.1635C67.1018 32.8924 66.804 32.6138 66.5215 32.3427L66.5102 32.3466ZM105.286 20.501C105.286 20.501 105.372 20.4208 105.41 20.3826C105.265 20.2547 105.124 20.1002 104.952 20.0066C104.751 19.898 104.519 19.8503 104.302 19.7721C104.261 19.8748 104.209 19.9814 104.172 20.0954C104.537 20.237 104.913 20.3747 105.278 20.5163L105.286 20.501ZM106.75 76.021C106.652 76.0672 106.554 76.1134 106.459 76.1709C106.655 76.4464 106.835 76.7144 107.03 76.9899C107.083 76.9592 107.136 76.9285 107.189 76.8978C107.039 76.6068 106.889 76.3158 106.739 76.0248L106.75 76.021ZM11.977 142.536C11.9053 142.586 11.8261 142.651 11.7544 142.701C11.9572 142.961 12.1675 143.206 12.3704 143.466C12.4044 143.455 12.4307 143.42 12.4647 143.409C12.3035 143.122 12.1422 142.835 11.9657 142.54L11.977 142.536ZM100.87 68.7008C100.931 68.6548 100.983 68.6241 101.044 68.5782L100.534 67.827C100.462 67.8768 100.391 67.9266 100.33 67.9726C100.514 68.214 100.686 68.4593 100.87 68.7008ZM65.7274 110.884L65.867 110.773C65.649 110.505 65.4384 110.222 65.2203 109.954L65.0694 110.069C65.2875 110.337 65.5055 110.605 65.7274 110.884ZM102.013 18.4114C101.968 18.5028 101.939 18.6016 101.894 18.6929C102.099 18.7749 102.309 18.8682 102.514 18.9503L102.585 18.8246C102.398 18.6856 102.2 18.5505 102.009 18.4001L102.013 18.4114ZM11.231 97.0728C11.1974 97.1603 11.1678 97.2591 11.1343 97.3466C11.3549 97.436 11.5716 97.5142 11.7922 97.6037L11.8853 97.3565C11.6647 97.267 11.4516 97.1623 11.231 97.0728ZM135.324 40.2475C135.406 40.0801 135.492 39.924 135.575 39.7566C135.301 39.7357 135.017 39.7187 134.565 39.6953C134.901 39.9357 135.118 40.0897 135.324 40.2475ZM1.47377 98.2977C1.46295 98.3774 1.45215 98.4571 1.44133 98.5368L2.06824 98.7031C2.06824 98.7031 2.10537 98.5891 2.11259 98.5359C1.89588 98.4578 1.68301 98.391 1.47765 98.309L1.47377 98.2977ZM104.414 73.2953C104.482 73.2341 104.542 73.1882 104.61 73.1271C104.473 72.9839 104.347 72.8369 104.209 72.6937L104.062 72.8199C104.181 72.9821 104.299 73.1444 104.414 73.2953ZM83.9544 16.3986C83.9544 16.3986 83.9173 16.5126 83.8948 16.5583C84.1154 16.6478 84.3435 16.722 84.5641 16.8115L84.6198 16.6405C84.4031 16.5623 84.1711 16.4767 83.9544 16.3986ZM85.7718 58.8736C85.7718 58.8736 85.6965 58.9499 85.6588 58.9881C85.823 59.1349 85.9796 59.2969 86.1437 59.4436C86.1813 59.4054 86.219 59.3672 86.2641 59.3138C86.1 59.1671 85.9359 59.0203 85.7679 58.8622L85.7718 58.8736ZM9.55272 99.508C9.5976 99.4166 9.6386 99.3139 9.69483 99.2187C9.49333 99.1481 9.29571 99.0888 9.09422 99.0182C9.04935 99.1095 9.00833 99.2121 8.96346 99.3035C9.16107 99.3628 9.35124 99.4373 9.54886 99.4966L9.55272 99.508ZM62.8154 103.907C62.8154 103.907 62.7514 103.98 62.7251 104.014C62.8399 104.165 62.9586 104.327 63.0734 104.478C63.1338 104.432 63.1828 104.39 63.2393 104.333C63.1018 104.189 62.9529 104.05 62.8154 103.907ZM18.6785 67.606C18.7198 67.5412 18.7763 67.4839 18.8176 67.4192C18.543 67.2087 18.2571 67.0021 17.9826 66.7917C17.9413 66.8564 17.8849 66.9137 17.8436 66.9785C18.1181 67.1889 18.404 67.3955 18.6824 67.6173L18.6785 67.606ZM29.3032 62.9808C29.2772 63.053 29.2625 63.1214 29.2365 63.1936C29.4341 63.2529 29.6356 63.3236 29.8332 63.3829C29.8518 63.3258 29.8742 63.2802 29.8928 63.2231C29.6987 63.1373 29.4973 63.0666 29.3032 62.9808ZM19.2872 65.1556C19.2872 65.1556 19.1969 65.2624 19.1557 65.3271C19.415 65.5301 19.6743 65.7331 19.9488 65.9436C19.9939 65.8901 20.0465 65.8215 20.0917 65.7681C19.8324 65.5651 19.5617 65.366 19.3024 65.163L19.2872 65.1556ZM-1.35846 91.8891C-1.35512 91.8246 -1.34431 91.7449 -1.34097 91.6804C-1.57625 91.6593 -1.81541 91.6268 -2.05069 91.6057C-2.06151 91.6855 -2.06099 91.7613 -2.07568 91.8297C-1.8404 91.8508 -1.60511 91.8719 -1.36983 91.893L-1.35846 91.8891ZM65.5157 107.18L65.3878 107.325C65.5442 107.449 65.6853 107.566 65.8417 107.69C65.8793 107.652 65.9131 107.602 65.9508 107.564C65.8058 107.436 65.6607 107.308 65.5271 107.176L65.5157 107.18ZM54.3825 98.7246C54.3825 98.7246 54.3072 98.801 54.2809 98.8353C54.4375 98.9973 54.5903 99.1479 54.7469 99.3099C54.7846 99.2717 54.8297 99.2183 54.8674 99.1801C54.7032 99.0334 54.5353 98.8753 54.3825 98.7246ZM56.727 101.549C56.7758 101.469 56.8132 101.393 56.8658 101.324C56.6713 101.162 56.4881 100.997 56.2935 100.835L56.1731 100.965C56.3526 101.157 56.5475 101.357 56.727 101.549ZM88.058 61.4896C88.058 61.4896 88.122 61.4171 88.1635 61.3903C88.0108 61.2396 87.858 61.089 87.7166 60.9345C87.6789 60.9727 87.6413 61.0108 87.6036 61.049C87.7564 61.1997 87.9053 61.339 88.0694 61.4857L88.058 61.4896ZM68.2914 34.3366C68.409 34.3472 68.5419 34.3652 68.6595 34.3757C68.6324 34.2963 68.6089 34.1903 68.5517 34.1338C68.4982 34.0887 68.3845 34.0895 68.3047 34.0786C68.3053 34.1545 68.2906 34.2229 68.2914 34.3366ZM26.734 111.615L26.921 111.235C26.7992 111.175 26.6661 111.119 26.5481 111.07C26.4883 111.192 26.421 111.329 26.3612 111.451C26.4943 111.507 26.6161 111.567 26.7453 111.611L26.734 111.615ZM23.9898 110.22C24.046 110.124 24.0984 110.018 24.1433 109.927C23.9418 109.856 23.7478 109.77 23.5463 109.699C23.5164 109.76 23.4903 109.833 23.4604 109.893C23.6356 109.998 23.8147 110.115 23.9785 110.224L23.9898 110.22ZM100.032 20.3291C100.032 20.3291 100.073 20.2264 100.095 20.1808C99.9469 20.1173 99.7872 20.0578 99.6389 19.9944L99.5793 20.1541C99.739 20.2136 99.8873 20.2771 100.043 20.3253L100.032 20.3291ZM2.4432 96.4591C2.4432 96.4591 2.50303 96.3373 2.53295 96.2764C2.43775 96.2202 2.32732 96.1565 2.22464 96.1155C2.22464 96.1155 2.16816 96.1728 2.14933 96.1919C2.24092 96.2747 2.34773 96.365 2.43933 96.4478L2.4432 96.4591ZM20.0986 106.947C20.0986 106.947 20.1432 106.818 20.1693 106.746C20.0552 106.709 19.9487 106.656 19.8346 106.619C19.8122 106.665 19.8011 106.707 19.7787 106.752C19.8777 106.82 19.9882 106.884 20.0873 106.951L20.0986 106.947ZM-0.999611 124.813C-1.07493 124.89 -1.15026 124.966 -1.22558 125.042C-1.06173 125.151 -0.905373 125.275 -0.741528 125.384C-0.703867 125.346 -0.666216 125.308 -0.628555 125.27C-0.743388 125.119 -0.869569 124.972 -0.988274 124.809L-0.999611 124.813ZM50.8659 95.3245C50.8659 95.3245 50.9448 95.2216 50.9824 95.1834C50.8565 95.0743 50.7345 94.9766 50.5972 94.8713C50.5634 94.9209 50.5183 94.9743 50.4806 95.0125C50.6065 95.1216 50.7286 95.2193 50.8659 95.3245ZM30.36 113.293C30.36 113.293 30.4242 113.258 30.443 113.239C30.3744 113.186 30.3058 113.134 30.241 113.092C30.2258 113.085 30.1729 113.116 30.1352 113.154C30.2152 113.203 30.28 113.244 30.36 113.293ZM63.1219 101.091C63.1709 101.049 63.2199 101.007 63.2841 100.972C63.1734 100.87 63.0588 100.758 62.9482 100.656C62.918 100.679 62.8878 100.702 62.8615 100.736C62.9533 100.857 63.0452 100.978 63.1371 101.098L63.1219 101.091Z" fill="#F2C94C"/>
<path d="M-40.8519 202.372C-38.5209 201.627 -37.1489 202.046 -35.7341 203.705C-34.9463 204.64 -35.1684 204.881 -35.8242 206.004C-36.4388 207.063 -37.4967 207.639 -38.0803 208.788C-38.7387 210.09 -39.9861 211.225 -41.5757 211.691C-42.8209 212.053 -43.9585 211.541 -44.2861 210.246C-44.6532 208.724 -44.573 207.176 -43.7786 205.79C-43.2167 204.8 -42.472 203.9 -41.7462 203.019C-41.4605 202.668 -40.9992 202.46 -40.837 202.341L-40.8519 202.372Z" fill="#F2C94C"/>
<path d="M69.326 42.3467C71.694 44.7195 74.0619 47.0922 76.4412 49.4611C76.5834 49.7294 76.7256 49.9977 76.8678 50.2659L76.8902 50.2203C75.5121 48.9291 74.1151 47.6569 72.7597 46.358C70.7324 44.4266 68.7239 42.4761 66.7154 40.5256C66.4481 40.2619 66.2411 39.9524 66.0001 39.6545L65.9738 39.6888C66.351 39.9403 66.7546 40.1574 67.1055 40.4432C67.8607 41.0599 68.601 41.7071 69.3374 42.3428L69.326 42.3467Z" fill="#F2C94C"/>
<path d="M119.613 35.533C121.445 36.7072 123.278 37.8815 125.122 39.0519C125.56 39.3333 125.994 39.6033 126.413 39.8659C126.585 40.1112 126.769 40.3526 127.152 40.8809C126.669 40.6909 126.494 40.6617 126.35 40.5717C123.823 38.8865 121.301 37.2126 118.782 35.5122C118.554 35.3621 118.385 35.1282 118.19 34.9285L118.164 34.9629L119.606 35.5482L119.613 35.533Z" fill="#F2C94C"/>
<path d="M25.5817 73.6902C26.6037 74.4947 27.6257 75.2992 28.6478 76.1036C29.532 76.727 30.4201 77.3617 31.3156 77.9812L31.2509 77.94C31.4694 78.2836 31.688 78.6272 31.9105 78.9821L31.9329 78.9364C31.1669 78.3995 30.382 77.8815 29.6234 77.3293C27.8508 76.0333 26.0896 74.7334 24.3359 73.4183C23.9623 73.1402 23.6601 72.7745 23.3316 72.443L23.3053 72.4773C24.0628 72.8778 24.8242 73.2897 25.5704 73.6941L25.5817 73.6902Z" fill="#F2C94C"/>
<path d="M-4.11565 97.2899C-3.59396 97.5935 -3.09471 97.9427 -2.53562 98.1701C-0.95329 98.8341 0.64013 99.4564 2.23354 100.079C2.67085 100.246 3.14557 100.338 3.60919 100.471C3.54575 100.619 3.49752 100.775 3.43409 100.924C3.21376 100.872 2.98595 100.836 2.77671 100.742C0.213469 99.7286 -2.36112 98.7188 -4.92075 97.6786C-5.17179 97.5742 -5.38569 97.3557 -5.60681 97.1903L-5.64061 97.2399C-5.11329 97.2627 -4.58595 97.2856 -4.04728 97.3046L-4.10818 97.2747L-4.11565 97.2899Z" fill="#F2C94C"/>
<path d="M0.367496 130.455C2.06125 132.411 3.47325 134.21 4.66265 136.174C3.61592 135.631 0.722213 131.829 0.367496 130.455Z" fill="#F2C94C"/>
<path d="M101.244 77.1895C101.662 77.8579 102.073 78.5415 102.491 79.2098C102.832 79.7649 103.178 80.3314 103.508 80.8904L103.519 80.8486C103.519 80.8486 103.405 80.8494 103.382 80.8192C101.881 78.759 100.395 76.7062 98.8941 74.646L98.8678 74.6803C99.2878 75.0945 99.704 75.4974 100.105 75.9308C100.514 76.3489 100.896 76.8013 101.298 77.2346L101.248 77.2009L101.244 77.1895Z" fill="#F2C94C"/>
<path d="M47.4672 21.9136C49.1433 23.5213 50.812 25.1442 52.4882 26.7519C52.6027 26.8648 52.6984 26.9969 52.7114 27.2206C50.9168 25.4885 48.8511 24.0391 47.4935 21.8792L47.4672 21.9136Z" fill="#F2C94C"/>
<path d="M-16.6833 112.043L-16.4302 112.451C-15.7276 113.136 -15.0211 113.833 -14.3185 114.518L-14.3794 114.489C-13.7745 115.296 -13.1849 116.096 -12.58 116.903L-12.5537 116.869C-12.8089 116.715 -13.1131 116.604 -13.3118 116.393C-14.951 114.633 -16.5563 112.862 -18.1767 111.083C-17.6739 111.405 -17.1749 111.717 -16.672 112.039L-16.6833 112.043Z" fill="#F2C94C"/>
<path d="M102.795 25.4562C102.992 25.4775 103.197 25.4837 103.394 25.5051C103.476 25.7434 103.557 25.9818 103.638 26.2202L103.649 26.1783C101.914 25.2499 100.178 24.3215 98.4418 23.3931L98.4155 23.4274C98.8603 23.5798 99.3123 23.679 99.7346 23.8771C100.766 24.3743 101.775 24.9172 102.791 25.4448L102.795 25.4562Z" fill="#F2C94C"/>
<path d="M108.753 28.6951C108.67 28.8246 108.517 29.0798 108.501 29.0723C106.872 28.1204 105.26 27.1494 103.649 26.1783L103.638 26.2202C104.091 26.3953 104.555 26.5664 105.011 26.7529C105.513 26.9618 106.015 27.1706 106.517 27.3795L106.453 27.3382C107.031 28.142 107.875 28.5002 108.802 28.7289L108.764 28.6912L108.753 28.6951Z" fill="#F2C94C"/>
<path d="M88.5538 18.441C88.8729 18.5222 89.1921 18.6034 89.5112 18.6846C90.0871 19.1471 90.6816 19.5525 91.4694 19.4105C91.5151 19.4329 91.5608 19.4554 91.6064 19.4778C91.8095 19.776 92.0126 20.0742 92.2157 20.3724L92.2268 20.3305C90.7964 19.7034 89.366 19.0763 87.9243 18.453L87.9132 18.4948C88.1217 18.4743 88.3301 18.4539 88.5386 18.4335L88.5538 18.441Z" fill="#F2C94C"/>
<path d="M23.3316 72.443C21.9899 71.4815 20.6486 70.52 19.3069 69.5584L19.2919 69.5889C19.825 69.8885 20.3467 70.1921 20.8759 70.4804C21.485 70.8175 22.1055 71.1507 22.7108 71.4764L22.646 71.4351C22.8646 71.7787 23.0832 72.1224 23.3131 72.4621L23.3394 72.4277L23.3316 72.443Z" fill="#F2C94C"/>
<path d="M-5.61046 97.2168C-7.22244 96.6516 -8.83442 96.0864 -10.4577 95.5251L-10.4802 95.5707C-9.9753 95.6393 -9.42941 95.6051 -8.98436 95.7954C-7.86592 96.2883 -6.54607 96.2942 -5.64424 97.2664L-5.61046 97.2168Z" fill="#F2C94C"/>
<path d="M57.0994 31.5399C56.0724 30.5724 55.0455 29.6049 54.0186 28.6374C54.0825 28.5649 54.1578 28.4885 54.2218 28.416C55.2488 29.3835 56.2718 30.3396 57.3101 31.3033C57.2462 31.3758 57.1708 31.4521 57.1107 31.536L57.0994 31.5399Z" fill="#F2C94C"/>
<path d="M95.615 21.6077C96.4334 22.0381 97.267 22.476 98.0854 22.9064C98.1966 23.0839 98.3078 23.2613 98.4191 23.4388L98.4454 23.4045C97.31 23.1963 96.3056 22.7406 95.5371 21.8623C95.5593 21.7787 95.5815 21.6951 95.615 21.6077Z" fill="#F2C94C"/>
<path d="M5.14371 136.694C5.78729 137.615 6.43086 138.536 7.07056 139.445C5.95907 138.862 5.38334 137.879 4.86796 136.852L5.12849 136.687L5.14371 136.694Z" fill="#F2C94C"/>
<path d="M-10.4464 95.5212C-11.693 95.1355 -12.9397 94.7498 -14.1711 94.3716L-14.2088 94.4098C-13.925 94.313 -13.6299 94.2123 -13.3461 94.1155L-13.4145 94.1008C-12.9318 94.2529 -12.4565 94.4203 -11.9738 94.5724L-12.0461 94.5464C-11.5633 94.6985 -11.0881 94.8658 -10.6054 95.0179L-10.6663 94.9881C-10.6005 95.181 -10.5347 95.374 -10.465 95.5783L-10.4425 95.5326L-10.4464 95.5212Z" fill="#F2C94C"/>
<path d="M98.127 72.8043C98.2161 73.0653 98.2824 73.3341 98.3601 73.599C98.5333 73.9581 98.7065 74.3172 98.8797 74.6763L98.906 74.642C98.0183 73.5256 97.1306 72.4092 96.243 71.2928L96.2167 71.3271C96.4754 71.4542 96.7304 71.57 96.9891 71.6972L96.9357 71.6521C97.1822 72.1889 97.4325 72.737 98.1309 72.8156L98.127 72.8043Z" fill="#F2C94C"/>
<path d="M14.3166 105.562C14.1425 105.608 13.931 105.731 13.7979 105.675C12.729 105.216 11.6825 104.712 10.6695 104.119C11.4192 103.94 11.8937 104.551 12.5135 104.77C13.1332 104.99 13.7044 105.327 14.3056 105.603L14.328 105.558L14.3166 105.562Z" fill="#F2C94C"/>
<path d="M103.508 80.8904C104.405 82.295 105.306 83.7108 106.204 85.1153L106.219 85.0849C105.924 84.7418 105.581 84.4408 105.351 84.0632C104.714 83.0133 104.13 81.9327 103.523 80.8599L103.512 80.9017L103.508 80.8904Z" fill="#F2C94C"/>
<path d="M-12.5689 116.899C-11.6216 117.856 -10.6744 118.813 -9.72719 119.769C-9.81386 119.85 -9.88919 119.926 -9.97973 119.995C-10.8818 118.985 -12.006 118.177 -12.5537 116.869L-12.5689 116.899Z" fill="#F2C94C"/>
<path d="M19.3069 69.5584C18.0257 69.1085 16.992 68.308 16.1051 67.3054L16.0905 67.3357C17.3642 67.8009 18.42 68.5558 19.2919 69.5889L19.3069 69.5584Z" fill="#F2C94C"/>
<path d="M-19.6089 92.2858C-19.0462 92.4866 -18.491 92.7027 -17.9283 92.9036C-17.7944 93.0733 -17.6718 93.2469 -17.5379 93.4166C-18.5869 93.0902 -19.6359 92.7638 -20.6849 92.4374C-20.3212 92.3893 -19.9726 92.3338 -19.6089 92.2858Z" fill="#F2C94C"/>
<path d="M94.9082 69.2012C95.0158 69.4052 95.1234 69.6093 95.2424 69.8095C95.5683 70.3192 95.8942 70.8289 96.2201 71.3386L96.2465 71.3043C95.3898 70.2787 94.5292 69.2418 93.6725 68.2162L93.6501 68.2619C94.0732 68.5737 94.5003 68.8969 94.912 69.2126L94.9082 69.2012Z" fill="#F2C94C"/>
<path d="M61.1272 106.536L61.1238 106.6C61.457 107.057 61.8015 107.509 62.1346 107.966L61.9989 108.088C61.2532 107.202 60.4961 106.32 59.7504 105.434L59.7393 105.476C60.2006 105.825 60.6772 106.182 61.1385 106.532L61.1272 106.536Z" fill="#F2C94C"/>
<path d="M77.5744 50.481C77.8337 50.684 78.1005 50.8718 78.3598 51.0748C78.6248 51.5546 78.8785 52.0382 79.1435 52.518L79.1699 52.4837C78.4061 51.7306 77.6385 50.966 76.8747 50.2129L76.8522 50.2585C77.0917 50.3289 77.335 50.4107 77.5744 50.481Z" fill="#F2C94C"/>
<path d="M65.0794 38.7013C63.9842 38.2766 63.3669 37.3214 62.6331 36.5073C63.6117 37.0732 64.4397 37.7918 65.0645 38.7318L65.0869 38.6861L65.0794 38.7013Z" fill="#F2C94C"/>
<path d="M7.74281 137.404C7.13031 137.132 6.13814 137.343 6.15184 136.046C6.79584 136.485 7.60772 136.525 7.72037 137.45L7.74281 137.404Z" fill="#F2C94C"/>
<path d="M-17.1047 93.535C-16.6989 93.5359 -16.2931 93.5369 -15.8947 93.5531C-15.3901 93.5837 -14.893 93.6295 -14.3958 93.6753L-14.4717 93.6758C-14.3904 93.9142 -14.3091 94.1526 -14.2239 94.4023L-14.1862 94.3641C-15.1553 94.0864 -16.1356 93.8126 -17.1047 93.535Z" fill="#F2C94C"/>
<path d="M-18.3419 110.746C-19.1444 109.88 -19.943 109.024 -20.7455 108.158L-20.7718 108.192C-20.4552 108.451 -20.1311 108.696 -19.8145 108.955C-19.4141 109.275 -19.025 109.598 -18.6245 109.918L-18.6779 109.873C-18.5773 110.168 -18.45 110.466 -18.338 110.758L-18.3419 110.746Z" fill="#F2C94C"/>
<path d="M34.2761 80.456C34.4745 80.6291 34.6729 80.8022 34.8827 80.9714C35.1466 81.2995 35.4106 81.6276 35.6746 81.9557L35.7009 81.9214C34.9991 81.3498 34.2973 80.7782 33.5916 80.1953L33.5653 80.2296C33.8047 80.3 34.048 80.3818 34.2761 80.456Z" fill="#F2C94C"/>
<path d="M60.5846 34.7733C60.0881 34.2838 59.5842 33.8094 59.0878 33.3199C59.1442 33.2626 59.1894 33.2092 59.2459 33.1519L60.7502 34.5902L60.5884 34.7847L60.5846 34.7733Z" fill="#F2C94C"/>
<path d="M68.029 115.661C67.0308 115.558 67.0765 114.504 66.6136 113.927C67.0879 114.5 67.566 115.084 68.0328 115.673L68.029 115.661Z" fill="#F2C94C"/>
<path d="M35.2957 65.2068C35.7529 65.507 36.2101 65.8072 36.6673 66.1074C36.6449 66.1531 36.615 66.214 36.5925 66.2597C36.1779 66.0843 35.7484 65.9394 35.3601 65.7297C35.284 65.6924 35.3502 65.4037 35.3414 65.2293L35.2957 65.2068Z" fill="#F2C94C"/>
<path d="M95.615 21.6077C95.5815 21.6951 95.5593 21.7787 95.5371 21.8623C94.806 21.985 94.3251 21.5788 93.8968 21.066C94.185 21.0564 94.4731 21.0468 94.7613 21.0372C95.0433 21.2324 95.333 21.4124 95.615 21.6077Z" fill="#F2C94C"/>
<path d="M59.7392 105.438C59.3454 104.989 58.9442 104.556 58.5504 104.107C59.2346 104.33 59.6171 104.783 59.7243 105.468L59.7392 105.438Z" fill="#F2C94C"/>
<path d="M-20.731 108.165C-21.1356 107.797 -21.5515 107.432 -21.96 107.051C-21.9337 107.017 -21.9187 106.987 -21.8885 106.964C-21.5879 107.102 -21.2912 107.229 -20.9793 107.363L-21.0402 107.333C-20.9434 107.617 -20.8427 107.912 -20.7459 108.196L-20.7196 108.162L-20.731 108.165Z" fill="#F2C94C"/>
<path d="M69.1655 118.214C69.9021 118.33 70.0996 118.909 70.2405 119.545C69.8847 119.096 69.5327 118.659 69.1655 118.214Z" fill="#F2C94C"/>
<path d="M33.5916 80.1953C33.0425 79.7744 32.4938 79.3534 31.9408 78.9211L31.9184 78.9668L32.9594 79.2326L32.8947 79.1913C33.1132 79.5349 33.3318 79.8785 33.5543 80.2334L33.5806 80.1991L33.5916 80.1953Z" fill="#F2C94C"/>
<path d="M69.1655 118.214C68.788 117.367 68.4104 116.52 68.0328 115.673C68.4104 116.52 68.7878 117.367 69.1579 118.229L69.1655 118.214Z" fill="#F2C94C"/>
<path d="M11.159 136.682C11.9262 136.294 12.0697 136.752 12.1874 137.32C11.3785 137.697 11.5542 136.801 11.1703 136.678L11.159 136.682Z" fill="#F2C94C"/>
<path d="M64.4287 111.124C64.8067 111.489 65.1734 111.859 65.5514 112.224C65.4608 112.293 65.3703 112.362 65.2911 112.427C65.0111 111.977 64.7311 111.528 64.4511 111.079L64.4287 111.124Z" fill="#F2C94C"/>
<path d="M118.187 34.9172C117.776 34.7152 117.357 34.5285 116.946 34.3266C116.976 34.2657 117.006 34.2048 117.036 34.1439C117.37 34.2326 117.693 34.3252 118.024 34.4025L117.963 34.3726C118.029 34.5655 118.094 34.7585 118.164 34.9629L118.19 34.9285L118.187 34.9172Z" fill="#F2C94C"/>
<path d="M92.8335 20.3263C93.001 20.4086 93.1684 20.4908 93.3359 20.573C93.5456 20.7422 93.7441 20.9153 93.9538 21.0845C93.2712 21.0893 92.6556 20.9191 92.2306 20.3419L92.2196 20.3837C92.428 20.3633 92.6364 20.3428 92.8335 20.3263Z" fill="#F2C94C"/>
<path d="M8.19586 102.847C8.47347 102.955 8.75495 103.075 9.04391 103.179C9.01787 103.251 8.98794 103.312 8.97325 103.38C8.66907 103.269 8.36489 103.157 8.06071 103.045C8.10197 102.981 8.1546 102.912 8.19586 102.847Z" fill="#F2C94C"/>
<path d="M-6.29985 124.467C-5.9038 124.699 -5.49254 124.939 -5.09649 125.172L-5.10423 125.149C-5.48893 124.913 -5.88497 124.68 -6.29237 124.452L-6.30371 124.456L-6.29985 124.467Z" fill="#F2C94C"/>
<path d="M-5.09649 125.172L-4.39942 126.138C-4.46365 126.172 -4.52787 126.207 -4.5921 126.241C-4.76527 125.882 -4.9271 125.519 -5.0928 125.145L-5.09649 125.172Z" fill="#F2C94C"/>
<path d="M72.028 123.003C72.2685 123.225 72.509 123.447 72.7533 123.68C72.7157 123.718 72.6894 123.753 72.6517 123.791C72.4489 123.531 72.2309 123.263 72.028 123.003Z" fill="#F2C94C"/>
<path d="M72.028 123.003L71.6215 121.811C71.6215 121.811 71.6783 121.791 71.7123 121.78C71.8138 122.189 71.9152 122.598 72.028 123.003Z" fill="#F2C94C"/>
<path d="M-6.29237 124.452C-6.4614 124.142 -6.64199 123.836 -6.84173 123.474C-6.23416 123.583 -6.23104 124 -6.30371 124.456L-6.29237 124.452Z" fill="#F2C94C"/>
<path d="M109.616 29.5158C109.821 29.6358 110.027 29.7557 110.244 29.8717C110.21 29.9213 110.18 29.9822 110.158 30.0278C109.952 29.9079 109.743 29.7766 109.537 29.6567C109.571 29.6072 109.593 29.5615 109.627 29.512L109.616 29.5158Z" fill="#F2C94C"/>
<path d="M64.4433 111.094C64.1834 110.815 63.9161 110.551 63.6563 110.273C63.7393 110.219 63.8224 110.165 63.9055 110.112C64.0709 110.448 64.2515 110.792 64.417 111.128L64.4394 111.083L64.4433 111.094Z" fill="#F2C94C"/>
<path d="M-8.46183 121.733C-8.65691 121.495 -8.84812 121.269 -9.04319 121.031C-9.00554 120.993 -8.95652 120.951 -8.91886 120.913C-8.70495 121.131 -8.49492 121.338 -8.28101 121.557C-8.3375 121.614 -8.40535 121.675 -8.46183 121.733Z" fill="#F2C94C"/>
<path d="M10.8829 135.687C11.5697 135.731 11.6121 135.856 11.1703 136.678C11.0769 136.33 10.9875 135.993 10.9054 135.641L10.8791 135.675L10.8829 135.687Z" fill="#F2C94C"/>
<path d="M65.9848 39.647C65.6867 39.3305 65.3774 39.0178 65.0794 38.7013L65.0569 38.7471C65.2847 38.7834 65.5011 38.8236 65.7328 38.8713L65.6681 38.83C65.7649 39.1138 65.8617 39.3976 65.9623 39.6927L65.9886 39.6583L65.9848 39.647Z" fill="#F2C94C"/>
<path d="M11.5204 148.774C11.7304 148.981 11.9479 149.173 12.158 149.38C12.1317 149.415 12.094 149.453 12.0638 149.476C11.8801 149.234 11.7002 149.004 11.5165 148.763L11.5204 148.774Z" fill="#F2C94C"/>
<path d="M107.402 87.3295C107.472 87.5338 107.564 87.7303 107.645 87.9308C107.6 87.9463 107.543 87.9656 107.498 87.9811C107.428 87.7768 107.336 87.5802 107.255 87.3798C107.3 87.3643 107.345 87.3488 107.402 87.3295Z" fill="#F2C94C"/>
<path d="M6.80893 102.497C6.64897 102.399 6.489 102.302 6.32903 102.204C6.35895 102.143 6.39274 102.094 6.42266 102.033L6.94382 102.26C6.89507 102.34 6.84633 102.42 6.79759 102.5L6.80893 102.497Z" fill="#F2C94C"/>
<path d="M11.5204 148.774C11.3741 148.457 11.2122 148.132 11.0659 147.814L11.1794 147.775C11.2917 148.105 11.4081 148.445 11.5204 148.774Z" fill="#F2C94C"/>
<path d="M106.204 85.1153C106.354 85.4063 106.488 85.6899 106.638 85.9808C106.604 85.9925 106.57 86.0041 106.525 86.0196C106.42 85.7131 106.312 85.3953 106.203 85.0775L106.188 85.1079L106.204 85.1153Z" fill="#F2C94C"/>
</svg>
